<mxfile host="Electron" agent="Mozilla/5.0 (Windows NT 10.0; Win64; x64) AppleWebKit/537.36 (KHTML, like Gecko) draw.io/28.1.2 Chrome/138.0.7204.243 Electron/37.4.0 Safari/537.36" version="28.1.2">
  <diagram name="Page-1" id="SOO-7dyW55qmrLhwtu4w">
    <mxGraphModel dx="2273" dy="696" grid="1" gridSize="10" guides="1" tooltips="1" connect="1" arrows="1" fold="1" page="1" pageScale="1" pageWidth="850" pageHeight="1100" math="0" shadow="0">
      <root>
        <mxCell id="0" />
        <mxCell id="1" parent="0" />
        <mxCell id="w4usCfikSlc2jYTotSTE-3" value="" style="edgeStyle=orthogonalEdgeStyle;rounded=0;orthogonalLoop=1;jettySize=auto;html=1;" parent="1" source="w4usCfikSlc2jYTotSTE-1" target="w4usCfikSlc2jYTotSTE-2" edge="1">
          <mxGeometry relative="1" as="geometry" />
        </mxCell>
        <mxCell id="w4usCfikSlc2jYTotSTE-1" value="START" style="ellipse;whiteSpace=wrap;html=1;" parent="1" vertex="1">
          <mxGeometry x="350" y="40" width="120" height="80" as="geometry" />
        </mxCell>
        <mxCell id="w4usCfikSlc2jYTotSTE-5" value="" style="edgeStyle=orthogonalEdgeStyle;rounded=0;orthogonalLoop=1;jettySize=auto;html=1;" parent="1" source="w4usCfikSlc2jYTotSTE-2" target="w4usCfikSlc2jYTotSTE-4" edge="1">
          <mxGeometry relative="1" as="geometry" />
        </mxCell>
        <mxCell id="w4usCfikSlc2jYTotSTE-2" value="admin = [[&quot;donijulianto&quot;,&quot;077&quot;, &quot;admin&quot;]] &amp;amp;&lt;div&gt;bookings = []&amp;nbsp;&lt;/div&gt;" style="whiteSpace=wrap;html=1;" parent="1" vertex="1">
          <mxGeometry x="295" y="180" width="230" height="60" as="geometry" />
        </mxCell>
        <mxCell id="w4usCfikSlc2jYTotSTE-7" value="" style="edgeStyle=orthogonalEdgeStyle;rounded=0;orthogonalLoop=1;jettySize=auto;html=1;" parent="1" source="w4usCfikSlc2jYTotSTE-4" target="w4usCfikSlc2jYTotSTE-6" edge="1">
          <mxGeometry relative="1" as="geometry" />
        </mxCell>
        <mxCell id="w4usCfikSlc2jYTotSTE-4" value="running = True" style="whiteSpace=wrap;html=1;" parent="1" vertex="1">
          <mxGeometry x="350" y="300" width="120" height="60" as="geometry" />
        </mxCell>
        <mxCell id="w4usCfikSlc2jYTotSTE-9" value="" style="edgeStyle=orthogonalEdgeStyle;rounded=0;orthogonalLoop=1;jettySize=auto;html=1;" parent="1" source="w4usCfikSlc2jYTotSTE-6" target="w4usCfikSlc2jYTotSTE-8" edge="1">
          <mxGeometry relative="1" as="geometry" />
        </mxCell>
        <mxCell id="w4usCfikSlc2jYTotSTE-12" value="True" style="edgeLabel;html=1;align=center;verticalAlign=middle;resizable=0;points=[];" parent="w4usCfikSlc2jYTotSTE-9" vertex="1" connectable="0">
          <mxGeometry x="0.0339" y="-2" relative="1" as="geometry">
            <mxPoint as="offset" />
          </mxGeometry>
        </mxCell>
        <mxCell id="CIbSiEcg6Qid_k_bVaX8-13" style="edgeStyle=orthogonalEdgeStyle;rounded=0;orthogonalLoop=1;jettySize=auto;html=1;exitX=1;exitY=0.5;exitDx=0;exitDy=0;entryX=0.97;entryY=0.618;entryDx=0;entryDy=0;entryPerimeter=0;" parent="1" source="w4usCfikSlc2jYTotSTE-6" target="yLmZNPnP0pqB-7X6kR3p-4" edge="1">
          <mxGeometry relative="1" as="geometry">
            <mxPoint x="576.4499999999998" y="3391.5199999999995" as="targetPoint" />
            <mxPoint x="567.5" y="470" as="sourcePoint" />
            <Array as="points">
              <mxPoint x="3500" y="470" />
              <mxPoint x="3500" y="3390" />
            </Array>
          </mxGeometry>
        </mxCell>
        <mxCell id="CIbSiEcg6Qid_k_bVaX8-14" value="False" style="edgeLabel;html=1;align=center;verticalAlign=middle;resizable=0;points=[];" parent="CIbSiEcg6Qid_k_bVaX8-13" vertex="1" connectable="0">
          <mxGeometry x="-0.9364" y="1" relative="1" as="geometry">
            <mxPoint as="offset" />
          </mxGeometry>
        </mxCell>
        <mxCell id="w4usCfikSlc2jYTotSTE-6" value="while running :" style="shape=hexagon;perimeter=hexagonPerimeter2;whiteSpace=wrap;html=1;fixedSize=1;" parent="1" vertex="1">
          <mxGeometry x="350" y="430" width="120" height="80" as="geometry" />
        </mxCell>
        <mxCell id="w4usCfikSlc2jYTotSTE-11" value="" style="edgeStyle=orthogonalEdgeStyle;rounded=0;orthogonalLoop=1;jettySize=auto;html=1;" parent="1" source="w4usCfikSlc2jYTotSTE-8" target="w4usCfikSlc2jYTotSTE-10" edge="1">
          <mxGeometry relative="1" as="geometry" />
        </mxCell>
        <mxCell id="w4usCfikSlc2jYTotSTE-8" value="output &quot;sistem penyewaan lapangan badminton &amp;amp; pilihan login, register dan keluar&quot;" style="shape=parallelogram;perimeter=parallelogramPerimeter;whiteSpace=wrap;html=1;fixedSize=1;" parent="1" vertex="1">
          <mxGeometry x="225" y="600" width="370" height="90" as="geometry" />
        </mxCell>
        <mxCell id="w4usCfikSlc2jYTotSTE-14" value="" style="edgeStyle=orthogonalEdgeStyle;rounded=0;orthogonalLoop=1;jettySize=auto;html=1;" parent="1" source="w4usCfikSlc2jYTotSTE-10" target="w4usCfikSlc2jYTotSTE-13" edge="1">
          <mxGeometry relative="1" as="geometry" />
        </mxCell>
        <mxCell id="w4usCfikSlc2jYTotSTE-10" value="input menu" style="shape=parallelogram;perimeter=parallelogramPerimeter;whiteSpace=wrap;html=1;fixedSize=1;" parent="1" vertex="1">
          <mxGeometry x="350" y="750" width="120" height="60" as="geometry" />
        </mxCell>
        <mxCell id="w4usCfikSlc2jYTotSTE-16" value="" style="edgeStyle=orthogonalEdgeStyle;rounded=0;orthogonalLoop=1;jettySize=auto;html=1;" parent="1" source="w4usCfikSlc2jYTotSTE-13" target="w4usCfikSlc2jYTotSTE-15" edge="1">
          <mxGeometry relative="1" as="geometry" />
        </mxCell>
        <mxCell id="w4usCfikSlc2jYTotSTE-19" value="True" style="edgeLabel;html=1;align=center;verticalAlign=middle;resizable=0;points=[];" parent="w4usCfikSlc2jYTotSTE-16" vertex="1" connectable="0">
          <mxGeometry x="0.1291" y="1" relative="1" as="geometry">
            <mxPoint as="offset" />
          </mxGeometry>
        </mxCell>
        <mxCell id="rC6qOEJCelBpkK42YzZv-19" style="edgeStyle=orthogonalEdgeStyle;rounded=0;orthogonalLoop=1;jettySize=auto;html=1;exitX=0;exitY=0.5;exitDx=0;exitDy=0;entryX=1;entryY=0.5;entryDx=0;entryDy=0;" parent="1" source="w4usCfikSlc2jYTotSTE-13" target="rC6qOEJCelBpkK42YzZv-9" edge="1">
          <mxGeometry relative="1" as="geometry">
            <mxPoint x="210" y="919.7037037037037" as="targetPoint" />
          </mxGeometry>
        </mxCell>
        <mxCell id="w4usCfikSlc2jYTotSTE-13" value="menu == 1" style="rhombus;whiteSpace=wrap;html=1;" parent="1" vertex="1">
          <mxGeometry x="370" y="880" width="80" height="80" as="geometry" />
        </mxCell>
        <mxCell id="w4usCfikSlc2jYTotSTE-18" value="" style="edgeStyle=orthogonalEdgeStyle;rounded=0;orthogonalLoop=1;jettySize=auto;html=1;" parent="1" source="w4usCfikSlc2jYTotSTE-15" target="w4usCfikSlc2jYTotSTE-17" edge="1">
          <mxGeometry relative="1" as="geometry" />
        </mxCell>
        <mxCell id="w4usCfikSlc2jYTotSTE-15" value="Output &quot;Login&quot;" style="shape=parallelogram;perimeter=parallelogramPerimeter;whiteSpace=wrap;html=1;fixedSize=1;" parent="1" vertex="1">
          <mxGeometry x="350" y="1050" width="120" height="60" as="geometry" />
        </mxCell>
        <mxCell id="w4usCfikSlc2jYTotSTE-21" value="" style="edgeStyle=orthogonalEdgeStyle;rounded=0;orthogonalLoop=1;jettySize=auto;html=1;" parent="1" source="w4usCfikSlc2jYTotSTE-17" target="w4usCfikSlc2jYTotSTE-20" edge="1">
          <mxGeometry relative="1" as="geometry" />
        </mxCell>
        <mxCell id="w4usCfikSlc2jYTotSTE-17" value="input username &amp;amp; password" style="shape=parallelogram;perimeter=parallelogramPerimeter;whiteSpace=wrap;html=1;fixedSize=1;" parent="1" vertex="1">
          <mxGeometry x="340" y="1190" width="140" height="60" as="geometry" />
        </mxCell>
        <mxCell id="w4usCfikSlc2jYTotSTE-23" value="" style="edgeStyle=orthogonalEdgeStyle;rounded=0;orthogonalLoop=1;jettySize=auto;html=1;" parent="1" edge="1">
          <mxGeometry relative="1" as="geometry">
            <mxPoint x="412.48" y="1480" as="sourcePoint" />
            <mxPoint x="407.51703703703697" y="1815.23" as="targetPoint" />
            <Array as="points">
              <mxPoint x="413" y="1481" />
              <mxPoint x="408" y="1481" />
              <mxPoint x="408" y="1648" />
            </Array>
          </mxGeometry>
        </mxCell>
        <mxCell id="w4usCfikSlc2jYTotSTE-78" value="True" style="edgeLabel;html=1;align=center;verticalAlign=middle;resizable=0;points=[];" parent="w4usCfikSlc2jYTotSTE-23" vertex="1" connectable="0">
          <mxGeometry x="0.6716" y="1" relative="1" as="geometry">
            <mxPoint as="offset" />
          </mxGeometry>
        </mxCell>
        <mxCell id="w4usCfikSlc2jYTotSTE-79" value="True" style="edgeLabel;html=1;align=center;verticalAlign=middle;resizable=0;points=[];" parent="w4usCfikSlc2jYTotSTE-23" vertex="1" connectable="0">
          <mxGeometry x="-0.6868" y="2" relative="1" as="geometry">
            <mxPoint as="offset" />
          </mxGeometry>
        </mxCell>
        <mxCell id="rC6qOEJCelBpkK42YzZv-80" value="True" style="edgeLabel;html=1;align=center;verticalAlign=middle;resizable=0;points=[];" parent="w4usCfikSlc2jYTotSTE-23" vertex="1" connectable="0">
          <mxGeometry x="0.0025" y="4" relative="1" as="geometry">
            <mxPoint as="offset" />
          </mxGeometry>
        </mxCell>
        <mxCell id="rC6qOEJCelBpkK42YzZv-3" style="edgeStyle=orthogonalEdgeStyle;rounded=0;orthogonalLoop=1;jettySize=auto;html=1;exitX=1;exitY=0.5;exitDx=0;exitDy=0;entryX=0;entryY=0.5;entryDx=0;entryDy=0;" parent="1" source="w4usCfikSlc2jYTotSTE-20" target="w4usCfikSlc2jYTotSTE-207" edge="1">
          <mxGeometry relative="1" as="geometry" />
        </mxCell>
        <mxCell id="rC6qOEJCelBpkK42YzZv-4" value="False" style="edgeLabel;html=1;align=center;verticalAlign=middle;resizable=0;points=[];" parent="rC6qOEJCelBpkK42YzZv-3" vertex="1" connectable="0">
          <mxGeometry x="-0.3272" y="-2" relative="1" as="geometry">
            <mxPoint as="offset" />
          </mxGeometry>
        </mxCell>
        <mxCell id="w4usCfikSlc2jYTotSTE-20" value="if user == admin[0] &amp;amp; password == admin[1] &amp;amp;&amp;amp; user == users [0] &amp;amp;&lt;div&gt;password == user[1]&lt;/div&gt;" style="rhombus;whiteSpace=wrap;html=1;" parent="1" vertex="1">
          <mxGeometry x="327.5" y="1300" width="165" height="200" as="geometry" />
        </mxCell>
        <mxCell id="w4usCfikSlc2jYTotSTE-22" value="Output menu admin&lt;div&gt;1. lihat semua penyewaan&lt;/div&gt;&lt;div&gt;2. hapus penyewaan&lt;/div&gt;&lt;div&gt;3. logout&lt;/div&gt;" style="shape=parallelogram;perimeter=parallelogramPerimeter;whiteSpace=wrap;html=1;fixedSize=1;" parent="1" vertex="1">
          <mxGeometry x="320" y="1815.23" width="170" height="70" as="geometry" />
        </mxCell>
        <mxCell id="w4usCfikSlc2jYTotSTE-30" value="" style="edgeStyle=orthogonalEdgeStyle;rounded=0;orthogonalLoop=1;jettySize=auto;html=1;" parent="1" source="w4usCfikSlc2jYTotSTE-25" target="w4usCfikSlc2jYTotSTE-29" edge="1">
          <mxGeometry relative="1" as="geometry" />
        </mxCell>
        <mxCell id="w4usCfikSlc2jYTotSTE-36" value="True" style="edgeLabel;html=1;align=center;verticalAlign=middle;resizable=0;points=[];" parent="w4usCfikSlc2jYTotSTE-30" vertex="1" connectable="0">
          <mxGeometry x="-0.1385" relative="1" as="geometry">
            <mxPoint as="offset" />
          </mxGeometry>
        </mxCell>
        <mxCell id="w4usCfikSlc2jYTotSTE-38" value="" style="edgeStyle=orthogonalEdgeStyle;rounded=0;orthogonalLoop=1;jettySize=auto;html=1;" parent="1" source="w4usCfikSlc2jYTotSTE-25" target="w4usCfikSlc2jYTotSTE-37" edge="1">
          <mxGeometry relative="1" as="geometry" />
        </mxCell>
        <mxCell id="w4usCfikSlc2jYTotSTE-65" value="False" style="edgeLabel;html=1;align=center;verticalAlign=middle;resizable=0;points=[];" parent="w4usCfikSlc2jYTotSTE-38" vertex="1" connectable="0">
          <mxGeometry x="-0.0063" y="-5" relative="1" as="geometry">
            <mxPoint as="offset" />
          </mxGeometry>
        </mxCell>
        <mxCell id="w4usCfikSlc2jYTotSTE-25" value="if admin_menu == &quot;1&quot;" style="rhombus;whiteSpace=wrap;html=1;" parent="1" vertex="1">
          <mxGeometry x="340" y="2012.32" width="130" height="107.27" as="geometry" />
        </mxCell>
        <mxCell id="w4usCfikSlc2jYTotSTE-32" value="" style="edgeStyle=orthogonalEdgeStyle;rounded=0;orthogonalLoop=1;jettySize=auto;html=1;" parent="1" source="w4usCfikSlc2jYTotSTE-29" target="w4usCfikSlc2jYTotSTE-31" edge="1">
          <mxGeometry relative="1" as="geometry" />
        </mxCell>
        <mxCell id="w4usCfikSlc2jYTotSTE-29" value="Output Semua penyewaan" style="shape=parallelogram;perimeter=parallelogramPerimeter;whiteSpace=wrap;html=1;fixedSize=1;" parent="1" vertex="1">
          <mxGeometry x="345" y="2194.09" width="120" height="60" as="geometry" />
        </mxCell>
        <mxCell id="w4usCfikSlc2jYTotSTE-86" style="edgeStyle=orthogonalEdgeStyle;rounded=0;orthogonalLoop=1;jettySize=auto;html=1;exitX=0.5;exitY=1;exitDx=0;exitDy=0;" parent="1" source="w4usCfikSlc2jYTotSTE-31" edge="1">
          <mxGeometry relative="1" as="geometry">
            <mxPoint x="405" y="3050" as="targetPoint" />
          </mxGeometry>
        </mxCell>
        <mxCell id="w4usCfikSlc2jYTotSTE-31" value="Input tekan enter untuk kembali" style="shape=parallelogram;perimeter=parallelogramPerimeter;whiteSpace=wrap;html=1;fixedSize=1;" parent="1" vertex="1">
          <mxGeometry x="345" y="2334.09" width="120" height="60" as="geometry" />
        </mxCell>
        <mxCell id="w4usCfikSlc2jYTotSTE-40" value="" style="edgeStyle=orthogonalEdgeStyle;rounded=0;orthogonalLoop=1;jettySize=auto;html=1;" parent="1" source="w4usCfikSlc2jYTotSTE-37" target="w4usCfikSlc2jYTotSTE-39" edge="1">
          <mxGeometry relative="1" as="geometry" />
        </mxCell>
        <mxCell id="w4usCfikSlc2jYTotSTE-41" value="True" style="edgeLabel;html=1;align=center;verticalAlign=middle;resizable=0;points=[];" parent="w4usCfikSlc2jYTotSTE-40" vertex="1" connectable="0">
          <mxGeometry x="-0.1179" relative="1" as="geometry">
            <mxPoint as="offset" />
          </mxGeometry>
        </mxCell>
        <mxCell id="w4usCfikSlc2jYTotSTE-61" value="" style="edgeStyle=orthogonalEdgeStyle;rounded=0;orthogonalLoop=1;jettySize=auto;html=1;" parent="1" source="w4usCfikSlc2jYTotSTE-37" target="w4usCfikSlc2jYTotSTE-60" edge="1">
          <mxGeometry relative="1" as="geometry" />
        </mxCell>
        <mxCell id="w4usCfikSlc2jYTotSTE-66" value="False" style="edgeLabel;html=1;align=center;verticalAlign=middle;resizable=0;points=[];" parent="w4usCfikSlc2jYTotSTE-61" vertex="1" connectable="0">
          <mxGeometry x="-0.1854" y="-4" relative="1" as="geometry">
            <mxPoint as="offset" />
          </mxGeometry>
        </mxCell>
        <mxCell id="w4usCfikSlc2jYTotSTE-37" value="if admin_menu == &quot;2&quot;" style="rhombus;whiteSpace=wrap;html=1;" parent="1" vertex="1">
          <mxGeometry x="525" y="2009.09" width="130" height="117.27" as="geometry" />
        </mxCell>
        <mxCell id="w4usCfikSlc2jYTotSTE-43" value="" style="edgeStyle=orthogonalEdgeStyle;rounded=0;orthogonalLoop=1;jettySize=auto;html=1;" parent="1" source="w4usCfikSlc2jYTotSTE-39" target="w4usCfikSlc2jYTotSTE-42" edge="1">
          <mxGeometry relative="1" as="geometry" />
        </mxCell>
        <mxCell id="w4usCfikSlc2jYTotSTE-39" value="Output Hapus Penyewaan" style="shape=parallelogram;perimeter=parallelogramPerimeter;whiteSpace=wrap;html=1;fixedSize=1;" parent="1" vertex="1">
          <mxGeometry x="525" y="2194.09" width="120" height="60" as="geometry" />
        </mxCell>
        <mxCell id="w4usCfikSlc2jYTotSTE-45" value="" style="edgeStyle=orthogonalEdgeStyle;rounded=0;orthogonalLoop=1;jettySize=auto;html=1;" parent="1" source="w4usCfikSlc2jYTotSTE-46" edge="1">
          <mxGeometry relative="1" as="geometry">
            <mxPoint x="585" y="2474.09" as="targetPoint" />
          </mxGeometry>
        </mxCell>
        <mxCell id="w4usCfikSlc2jYTotSTE-42" value="Input nomor yang ingin dihapus" style="shape=parallelogram;perimeter=parallelogramPerimeter;whiteSpace=wrap;html=1;fixedSize=1;" parent="1" vertex="1">
          <mxGeometry x="507.5" y="2334.09" width="155" height="72.27" as="geometry" />
        </mxCell>
        <mxCell id="w4usCfikSlc2jYTotSTE-48" value="" style="edgeStyle=orthogonalEdgeStyle;rounded=0;orthogonalLoop=1;jettySize=auto;html=1;" parent="1" source="w4usCfikSlc2jYTotSTE-46" target="w4usCfikSlc2jYTotSTE-47" edge="1">
          <mxGeometry relative="1" as="geometry" />
        </mxCell>
        <mxCell id="w4usCfikSlc2jYTotSTE-49" value="True" style="edgeLabel;html=1;align=center;verticalAlign=middle;resizable=0;points=[];" parent="w4usCfikSlc2jYTotSTE-48" vertex="1" connectable="0">
          <mxGeometry x="-0.056" relative="1" as="geometry">
            <mxPoint as="offset" />
          </mxGeometry>
        </mxCell>
        <mxCell id="w4usCfikSlc2jYTotSTE-54" value="" style="edgeStyle=orthogonalEdgeStyle;rounded=0;orthogonalLoop=1;jettySize=auto;html=1;" parent="1" source="w4usCfikSlc2jYTotSTE-46" target="w4usCfikSlc2jYTotSTE-53" edge="1">
          <mxGeometry relative="1" as="geometry" />
        </mxCell>
        <mxCell id="w4usCfikSlc2jYTotSTE-55" value="False" style="edgeLabel;html=1;align=center;verticalAlign=middle;resizable=0;points=[];" parent="w4usCfikSlc2jYTotSTE-54" vertex="1" connectable="0">
          <mxGeometry x="-0.2937" y="-1" relative="1" as="geometry">
            <mxPoint as="offset" />
          </mxGeometry>
        </mxCell>
        <mxCell id="w4usCfikSlc2jYTotSTE-51" value="" style="edgeStyle=orthogonalEdgeStyle;rounded=0;orthogonalLoop=1;jettySize=auto;html=1;" parent="1" source="w4usCfikSlc2jYTotSTE-47" target="w4usCfikSlc2jYTotSTE-50" edge="1">
          <mxGeometry relative="1" as="geometry">
            <Array as="points">
              <mxPoint x="585" y="2776.36" />
              <mxPoint x="585" y="2776.36" />
            </Array>
          </mxGeometry>
        </mxCell>
        <mxCell id="w4usCfikSlc2jYTotSTE-52" value="True" style="edgeLabel;html=1;align=center;verticalAlign=middle;resizable=0;points=[];" parent="w4usCfikSlc2jYTotSTE-51" vertex="1" connectable="0">
          <mxGeometry x="-0.0656" relative="1" as="geometry">
            <mxPoint as="offset" />
          </mxGeometry>
        </mxCell>
        <mxCell id="w4usCfikSlc2jYTotSTE-57" value="" style="edgeStyle=orthogonalEdgeStyle;rounded=0;orthogonalLoop=1;jettySize=auto;html=1;" parent="1" source="w4usCfikSlc2jYTotSTE-47" edge="1">
          <mxGeometry relative="1" as="geometry">
            <mxPoint x="695" y="2641.5900000000006" as="targetPoint" />
          </mxGeometry>
        </mxCell>
        <mxCell id="yLmZNPnP0pqB-7X6kR3p-2" value="False" style="edgeLabel;html=1;align=center;verticalAlign=middle;resizable=0;points=[];" parent="w4usCfikSlc2jYTotSTE-57" vertex="1" connectable="0">
          <mxGeometry x="0.0203" y="-1" relative="1" as="geometry">
            <mxPoint as="offset" />
          </mxGeometry>
        </mxCell>
        <mxCell id="w4usCfikSlc2jYTotSTE-47" value="if nomor == data&amp;nbsp;" style="rhombus;whiteSpace=wrap;html=1;" parent="1" vertex="1">
          <mxGeometry x="540" y="2601.59" width="85" height="80" as="geometry" />
        </mxCell>
        <mxCell id="w4usCfikSlc2jYTotSTE-59" value="" style="edgeStyle=orthogonalEdgeStyle;rounded=0;orthogonalLoop=1;jettySize=auto;html=1;" parent="1" source="w4usCfikSlc2jYTotSTE-50" target="w4usCfikSlc2jYTotSTE-58" edge="1">
          <mxGeometry relative="1" as="geometry" />
        </mxCell>
        <mxCell id="w4usCfikSlc2jYTotSTE-50" value="Output Data dihapus" style="shape=parallelogram;perimeter=parallelogramPerimeter;whiteSpace=wrap;html=1;fixedSize=1;" parent="1" vertex="1">
          <mxGeometry x="510" y="2806.36" width="135" height="60" as="geometry" />
        </mxCell>
        <mxCell id="w4usCfikSlc2jYTotSTE-159" style="edgeStyle=orthogonalEdgeStyle;rounded=0;orthogonalLoop=1;jettySize=auto;html=1;exitX=1;exitY=0.5;exitDx=0;exitDy=0;" parent="1" source="w4usCfikSlc2jYTotSTE-53" edge="1">
          <mxGeometry relative="1" as="geometry">
            <mxPoint x="830" y="3050" as="targetPoint" />
            <Array as="points">
              <mxPoint x="831" y="2481.36" />
              <mxPoint x="831" y="2866.36" />
            </Array>
          </mxGeometry>
        </mxCell>
        <mxCell id="w4usCfikSlc2jYTotSTE-53" value="Output &quot;input harus angka&quot;" style="shape=parallelogram;perimeter=parallelogramPerimeter;whiteSpace=wrap;html=1;fixedSize=1;" parent="1" vertex="1">
          <mxGeometry x="685" y="2454.09" width="135" height="60" as="geometry" />
        </mxCell>
        <mxCell id="w4usCfikSlc2jYTotSTE-160" style="edgeStyle=orthogonalEdgeStyle;rounded=0;orthogonalLoop=1;jettySize=auto;html=1;exitX=1;exitY=0.5;exitDx=0;exitDy=0;" parent="1" source="w4usCfikSlc2jYTotSTE-56" edge="1">
          <mxGeometry relative="1" as="geometry">
            <mxPoint x="820" y="2641.712941176471" as="targetPoint" />
          </mxGeometry>
        </mxCell>
        <mxCell id="w4usCfikSlc2jYTotSTE-56" value="Output &quot;Nomor Tidak valid&quot;" style="shape=parallelogram;perimeter=parallelogramPerimeter;whiteSpace=wrap;html=1;fixedSize=1;" parent="1" vertex="1">
          <mxGeometry x="675" y="2611.59" width="145" height="60" as="geometry" />
        </mxCell>
        <mxCell id="CIbSiEcg6Qid_k_bVaX8-18" style="edgeStyle=orthogonalEdgeStyle;rounded=0;orthogonalLoop=1;jettySize=auto;html=1;exitX=0.5;exitY=1;exitDx=0;exitDy=0;" parent="1" source="w4usCfikSlc2jYTotSTE-58" edge="1">
          <mxGeometry relative="1" as="geometry">
            <mxPoint x="578" y="3050" as="targetPoint" />
          </mxGeometry>
        </mxCell>
        <mxCell id="w4usCfikSlc2jYTotSTE-58" value="input tekan enter untuk kembali" style="shape=parallelogram;perimeter=parallelogramPerimeter;whiteSpace=wrap;html=1;fixedSize=1;" parent="1" vertex="1">
          <mxGeometry x="517.5" y="2896.36" width="120" height="60" as="geometry" />
        </mxCell>
        <mxCell id="w4usCfikSlc2jYTotSTE-63" value="" style="edgeStyle=orthogonalEdgeStyle;rounded=0;orthogonalLoop=1;jettySize=auto;html=1;" parent="1" source="w4usCfikSlc2jYTotSTE-60" edge="1">
          <mxGeometry relative="1" as="geometry">
            <mxPoint x="865" y="2179.09" as="targetPoint" />
          </mxGeometry>
        </mxCell>
        <mxCell id="w4usCfikSlc2jYTotSTE-68" value="" style="edgeStyle=orthogonalEdgeStyle;rounded=0;orthogonalLoop=1;jettySize=auto;html=1;" parent="1" source="w4usCfikSlc2jYTotSTE-60" target="w4usCfikSlc2jYTotSTE-67" edge="1">
          <mxGeometry relative="1" as="geometry" />
        </mxCell>
        <mxCell id="w4usCfikSlc2jYTotSTE-60" value="if admin_menu&lt;div&gt;&amp;nbsp;== &quot;3&quot;&lt;/div&gt;" style="rhombus;whiteSpace=wrap;html=1;" parent="1" vertex="1">
          <mxGeometry x="810" y="2016.36" width="110" height="100" as="geometry" />
        </mxCell>
        <mxCell id="w4usCfikSlc2jYTotSTE-64" value="True" style="text;html=1;align=center;verticalAlign=middle;resizable=0;points=[];autosize=1;strokeColor=none;fillColor=none;" parent="1" vertex="1">
          <mxGeometry x="835" y="2119.59" width="50" height="30" as="geometry" />
        </mxCell>
        <mxCell id="w4usCfikSlc2jYTotSTE-70" value="" style="edgeStyle=orthogonalEdgeStyle;rounded=0;orthogonalLoop=1;jettySize=auto;html=1;" parent="1" source="w4usCfikSlc2jYTotSTE-67" target="w4usCfikSlc2jYTotSTE-69" edge="1">
          <mxGeometry relative="1" as="geometry" />
        </mxCell>
        <mxCell id="w4usCfikSlc2jYTotSTE-67" value="Output &quot;piihan&lt;div&gt;&amp;nbsp;tidak valid&quot;&lt;/div&gt;" style="shape=parallelogram;perimeter=parallelogramPerimeter;whiteSpace=wrap;html=1;fixedSize=1;" parent="1" vertex="1">
          <mxGeometry x="965" y="2035.9499999999998" width="120" height="60" as="geometry" />
        </mxCell>
        <mxCell id="CIbSiEcg6Qid_k_bVaX8-24" style="edgeStyle=orthogonalEdgeStyle;rounded=0;orthogonalLoop=1;jettySize=auto;html=1;exitX=1;exitY=0.5;exitDx=0;exitDy=0;entryX=0;entryY=0.5;entryDx=0;entryDy=0;" parent="1" source="w4usCfikSlc2jYTotSTE-69" target="w4usCfikSlc2jYTotSTE-77" edge="1">
          <mxGeometry relative="1" as="geometry">
            <mxPoint x="60" y="3020" as="targetPoint" />
            <Array as="points">
              <mxPoint x="1311" y="2066" />
              <mxPoint x="1311" y="3060" />
              <mxPoint x="60" y="3060" />
              <mxPoint x="60" y="1590" />
            </Array>
          </mxGeometry>
        </mxCell>
        <mxCell id="w4usCfikSlc2jYTotSTE-69" value="input &quot;tekan enter untuk kembali&quot;" style="shape=parallelogram;perimeter=parallelogramPerimeter;whiteSpace=wrap;html=1;fixedSize=1;" parent="1" vertex="1">
          <mxGeometry x="1165" y="2035.9499999999998" width="125" height="60" as="geometry" />
        </mxCell>
        <mxCell id="rC6qOEJCelBpkK42YzZv-81" style="edgeStyle=orthogonalEdgeStyle;rounded=0;orthogonalLoop=1;jettySize=auto;html=1;exitX=1;exitY=0.5;exitDx=0;exitDy=0;" parent="1" source="w4usCfikSlc2jYTotSTE-77" edge="1">
          <mxGeometry relative="1" as="geometry">
            <mxPoint x="1060" y="730" as="targetPoint" />
            <Array as="points">
              <mxPoint x="1060" y="1590" />
            </Array>
          </mxGeometry>
        </mxCell>
        <mxCell id="rC6qOEJCelBpkK42YzZv-82" value="false" style="edgeLabel;html=1;align=center;verticalAlign=middle;resizable=0;points=[];" parent="rC6qOEJCelBpkK42YzZv-81" vertex="1" connectable="0">
          <mxGeometry x="-0.9067" relative="1" as="geometry">
            <mxPoint as="offset" />
          </mxGeometry>
        </mxCell>
        <mxCell id="w4usCfikSlc2jYTotSTE-77" value="logged in = True" style="shape=hexagon;perimeter=hexagonPerimeter2;whiteSpace=wrap;html=1;fixedSize=1;" parent="1" vertex="1">
          <mxGeometry x="350" y="1550" width="120" height="80" as="geometry" />
        </mxCell>
        <mxCell id="w4usCfikSlc2jYTotSTE-88" value="" style="edgeStyle=orthogonalEdgeStyle;rounded=0;orthogonalLoop=1;jettySize=auto;html=1;" parent="1" source="w4usCfikSlc2jYTotSTE-81" target="w4usCfikSlc2jYTotSTE-87" edge="1">
          <mxGeometry relative="1" as="geometry" />
        </mxCell>
        <mxCell id="w4usCfikSlc2jYTotSTE-89" value="False" style="edgeLabel;html=1;align=center;verticalAlign=middle;resizable=0;points=[];" parent="w4usCfikSlc2jYTotSTE-88" vertex="1" connectable="0">
          <mxGeometry x="-0.1238" y="-5" relative="1" as="geometry">
            <mxPoint x="1" as="offset" />
          </mxGeometry>
        </mxCell>
        <mxCell id="w4usCfikSlc2jYTotSTE-81" value="if role == admin" style="rhombus;whiteSpace=wrap;html=1;" parent="1" vertex="1">
          <mxGeometry x="370" y="1670" width="80" height="80" as="geometry" />
        </mxCell>
        <mxCell id="w4usCfikSlc2jYTotSTE-91" value="" style="edgeStyle=orthogonalEdgeStyle;rounded=0;orthogonalLoop=1;jettySize=auto;html=1;entryX=0;entryY=0.75;entryDx=0;entryDy=0;" parent="1" source="w4usCfikSlc2jYTotSTE-87" target="w4usCfikSlc2jYTotSTE-104" edge="1">
          <mxGeometry relative="1" as="geometry">
            <mxPoint x="720" y="1710" as="targetPoint" />
            <Array as="points">
              <mxPoint x="850" y="1714" />
              <mxPoint x="850" y="1714" />
            </Array>
          </mxGeometry>
        </mxCell>
        <mxCell id="w4usCfikSlc2jYTotSTE-87" value="Output Menu pengguna" style="shape=parallelogram;perimeter=parallelogramPerimeter;whiteSpace=wrap;html=1;fixedSize=1;" parent="1" vertex="1">
          <mxGeometry x="510" y="1680" width="120" height="60" as="geometry" />
        </mxCell>
        <mxCell id="w4usCfikSlc2jYTotSTE-107" value="" style="edgeStyle=orthogonalEdgeStyle;rounded=0;orthogonalLoop=1;jettySize=auto;html=1;" parent="1" source="w4usCfikSlc2jYTotSTE-104" target="w4usCfikSlc2jYTotSTE-106" edge="1">
          <mxGeometry relative="1" as="geometry" />
        </mxCell>
        <mxCell id="w4usCfikSlc2jYTotSTE-104" value="Input pilih menu" style="shape=parallelogram;perimeter=parallelogramPerimeter;whiteSpace=wrap;html=1;fixedSize=1;" parent="1" vertex="1">
          <mxGeometry x="1500" y="1670" width="120" height="60" as="geometry" />
        </mxCell>
        <mxCell id="w4usCfikSlc2jYTotSTE-109" value="" style="edgeStyle=orthogonalEdgeStyle;rounded=0;orthogonalLoop=1;jettySize=auto;html=1;" parent="1" source="w4usCfikSlc2jYTotSTE-106" target="w4usCfikSlc2jYTotSTE-108" edge="1">
          <mxGeometry relative="1" as="geometry" />
        </mxCell>
        <mxCell id="w4usCfikSlc2jYTotSTE-116" value="True" style="edgeLabel;html=1;align=center;verticalAlign=middle;resizable=0;points=[];" parent="w4usCfikSlc2jYTotSTE-109" vertex="1" connectable="0">
          <mxGeometry x="-0.3035" y="-1" relative="1" as="geometry">
            <mxPoint as="offset" />
          </mxGeometry>
        </mxCell>
        <mxCell id="w4usCfikSlc2jYTotSTE-118" value="" style="edgeStyle=orthogonalEdgeStyle;rounded=0;orthogonalLoop=1;jettySize=auto;html=1;" parent="1" source="w4usCfikSlc2jYTotSTE-106" target="w4usCfikSlc2jYTotSTE-117" edge="1">
          <mxGeometry relative="1" as="geometry" />
        </mxCell>
        <mxCell id="w4usCfikSlc2jYTotSTE-119" value="False" style="edgeLabel;html=1;align=center;verticalAlign=middle;resizable=0;points=[];" parent="w4usCfikSlc2jYTotSTE-118" vertex="1" connectable="0">
          <mxGeometry x="-0.008" relative="1" as="geometry">
            <mxPoint as="offset" />
          </mxGeometry>
        </mxCell>
        <mxCell id="w4usCfikSlc2jYTotSTE-106" value="if user_menu == 1" style="rhombus;whiteSpace=wrap;html=1;" parent="1" vertex="1">
          <mxGeometry x="1500" y="1800" width="120" height="80" as="geometry" />
        </mxCell>
        <mxCell id="w4usCfikSlc2jYTotSTE-111" value="" style="edgeStyle=orthogonalEdgeStyle;rounded=0;orthogonalLoop=1;jettySize=auto;html=1;" parent="1" source="w4usCfikSlc2jYTotSTE-108" target="w4usCfikSlc2jYTotSTE-110" edge="1">
          <mxGeometry relative="1" as="geometry" />
        </mxCell>
        <mxCell id="w4usCfikSlc2jYTotSTE-108" value="Output &quot;Tambah penyewaan&quot;" style="shape=parallelogram;perimeter=parallelogramPerimeter;whiteSpace=wrap;html=1;fixedSize=1;" parent="1" vertex="1">
          <mxGeometry x="1500" y="1922.73" width="120" height="60" as="geometry" />
        </mxCell>
        <mxCell id="w4usCfikSlc2jYTotSTE-113" value="" style="edgeStyle=orthogonalEdgeStyle;rounded=0;orthogonalLoop=1;jettySize=auto;html=1;" parent="1" source="w4usCfikSlc2jYTotSTE-110" target="w4usCfikSlc2jYTotSTE-112" edge="1">
          <mxGeometry relative="1" as="geometry" />
        </mxCell>
        <mxCell id="w4usCfikSlc2jYTotSTE-110" value="Input tanggal, jam , lapangan&amp;nbsp;" style="shape=parallelogram;perimeter=parallelogramPerimeter;whiteSpace=wrap;html=1;fixedSize=1;" parent="1" vertex="1">
          <mxGeometry x="1490" y="2063.23" width="140" height="60" as="geometry" />
        </mxCell>
        <mxCell id="w4usCfikSlc2jYTotSTE-115" value="" style="edgeStyle=orthogonalEdgeStyle;rounded=0;orthogonalLoop=1;jettySize=auto;html=1;" parent="1" source="w4usCfikSlc2jYTotSTE-112" target="w4usCfikSlc2jYTotSTE-114" edge="1">
          <mxGeometry relative="1" as="geometry" />
        </mxCell>
        <mxCell id="w4usCfikSlc2jYTotSTE-112" value="Output &quot;Penyewaan berhasil&quot;" style="shape=parallelogram;perimeter=parallelogramPerimeter;whiteSpace=wrap;html=1;fixedSize=1;" parent="1" vertex="1">
          <mxGeometry x="1485" y="2190" width="150" height="60" as="geometry" />
        </mxCell>
        <mxCell id="w4usCfikSlc2jYTotSTE-199" style="edgeStyle=orthogonalEdgeStyle;rounded=0;orthogonalLoop=1;jettySize=auto;html=1;exitX=0.5;exitY=1;exitDx=0;exitDy=0;" parent="1" source="w4usCfikSlc2jYTotSTE-114" edge="1">
          <mxGeometry relative="1" as="geometry">
            <mxPoint x="1560" y="3120" as="targetPoint" />
            <Array as="points">
              <mxPoint x="1560" y="2960" />
            </Array>
          </mxGeometry>
        </mxCell>
        <mxCell id="w4usCfikSlc2jYTotSTE-114" value="Input&amp;nbsp; &quot;tekan enter untuk kembali&quot;" style="shape=parallelogram;perimeter=parallelogramPerimeter;whiteSpace=wrap;html=1;fixedSize=1;" parent="1" vertex="1">
          <mxGeometry x="1477.5" y="2327.5" width="165" height="60" as="geometry" />
        </mxCell>
        <mxCell id="w4usCfikSlc2jYTotSTE-121" value="" style="edgeStyle=orthogonalEdgeStyle;rounded=0;orthogonalLoop=1;jettySize=auto;html=1;" parent="1" source="w4usCfikSlc2jYTotSTE-117" target="w4usCfikSlc2jYTotSTE-120" edge="1">
          <mxGeometry relative="1" as="geometry" />
        </mxCell>
        <mxCell id="w4usCfikSlc2jYTotSTE-122" value="True" style="edgeLabel;html=1;align=center;verticalAlign=middle;resizable=0;points=[];" parent="w4usCfikSlc2jYTotSTE-121" vertex="1" connectable="0">
          <mxGeometry x="-0.1625" y="-2" relative="1" as="geometry">
            <mxPoint as="offset" />
          </mxGeometry>
        </mxCell>
        <mxCell id="w4usCfikSlc2jYTotSTE-126" value="" style="edgeStyle=orthogonalEdgeStyle;rounded=0;orthogonalLoop=1;jettySize=auto;html=1;" parent="1" source="w4usCfikSlc2jYTotSTE-117" target="w4usCfikSlc2jYTotSTE-125" edge="1">
          <mxGeometry relative="1" as="geometry" />
        </mxCell>
        <mxCell id="w4usCfikSlc2jYTotSTE-117" value="if&amp;nbsp;&lt;div&gt;user_menu==2&lt;/div&gt;" style="rhombus;whiteSpace=wrap;html=1;" parent="1" vertex="1">
          <mxGeometry x="1680" y="1795" width="110" height="90" as="geometry" />
        </mxCell>
        <mxCell id="w4usCfikSlc2jYTotSTE-124" value="" style="edgeStyle=orthogonalEdgeStyle;rounded=0;orthogonalLoop=1;jettySize=auto;html=1;" parent="1" source="w4usCfikSlc2jYTotSTE-120" target="w4usCfikSlc2jYTotSTE-123" edge="1">
          <mxGeometry relative="1" as="geometry" />
        </mxCell>
        <mxCell id="w4usCfikSlc2jYTotSTE-120" value="Output &quot;penyewaan saya&quot;" style="shape=parallelogram;perimeter=parallelogramPerimeter;whiteSpace=wrap;html=1;fixedSize=1;" parent="1" vertex="1">
          <mxGeometry x="1655" y="1932.73" width="160" height="60" as="geometry" />
        </mxCell>
        <mxCell id="w4usCfikSlc2jYTotSTE-200" style="edgeStyle=orthogonalEdgeStyle;rounded=0;orthogonalLoop=1;jettySize=auto;html=1;exitX=0.5;exitY=1;exitDx=0;exitDy=0;" parent="1" source="w4usCfikSlc2jYTotSTE-123" edge="1">
          <mxGeometry relative="1" as="geometry">
            <mxPoint x="1735" y="3120" as="targetPoint" />
            <Array as="points">
              <mxPoint x="1735" y="2980" />
              <mxPoint x="1735" y="2980" />
            </Array>
          </mxGeometry>
        </mxCell>
        <mxCell id="w4usCfikSlc2jYTotSTE-123" value="Input &quot;Tekan enter untuk kembali&quot;" style="shape=parallelogram;perimeter=parallelogramPerimeter;whiteSpace=wrap;html=1;fixedSize=1;" parent="1" vertex="1">
          <mxGeometry x="1652.5" y="2063.23" width="165" height="60" as="geometry" />
        </mxCell>
        <mxCell id="w4usCfikSlc2jYTotSTE-156" value="" style="edgeStyle=orthogonalEdgeStyle;rounded=0;orthogonalLoop=1;jettySize=auto;html=1;" parent="1" source="w4usCfikSlc2jYTotSTE-125" target="w4usCfikSlc2jYTotSTE-155" edge="1">
          <mxGeometry relative="1" as="geometry" />
        </mxCell>
        <mxCell id="w4usCfikSlc2jYTotSTE-158" value="False" style="edgeLabel;html=1;align=center;verticalAlign=middle;resizable=0;points=[];" parent="w4usCfikSlc2jYTotSTE-156" vertex="1" connectable="0">
          <mxGeometry x="-0.0526" relative="1" as="geometry">
            <mxPoint as="offset" />
          </mxGeometry>
        </mxCell>
        <mxCell id="CIbSiEcg6Qid_k_bVaX8-5" style="edgeStyle=orthogonalEdgeStyle;rounded=0;orthogonalLoop=1;jettySize=auto;html=1;exitX=0.5;exitY=1;exitDx=0;exitDy=0;" parent="1" source="w4usCfikSlc2jYTotSTE-125" edge="1">
          <mxGeometry relative="1" as="geometry">
            <mxPoint x="1924.8235294117649" y="1950" as="targetPoint" />
          </mxGeometry>
        </mxCell>
        <mxCell id="CIbSiEcg6Qid_k_bVaX8-6" value="True" style="edgeLabel;html=1;align=center;verticalAlign=middle;resizable=0;points=[];" parent="CIbSiEcg6Qid_k_bVaX8-5" vertex="1" connectable="0">
          <mxGeometry x="-0.2067" y="-1" relative="1" as="geometry">
            <mxPoint as="offset" />
          </mxGeometry>
        </mxCell>
        <mxCell id="w4usCfikSlc2jYTotSTE-125" value="if&amp;nbsp;&lt;div&gt;user_menu==3&lt;/div&gt;" style="rhombus;whiteSpace=wrap;html=1;" parent="1" vertex="1">
          <mxGeometry x="1860" y="1800" width="130" height="80" as="geometry" />
        </mxCell>
        <mxCell id="w4usCfikSlc2jYTotSTE-127" value="False" style="text;html=1;align=center;verticalAlign=middle;resizable=0;points=[];autosize=1;strokeColor=none;fillColor=none;" parent="1" vertex="1">
          <mxGeometry x="1795" y="1828" width="50" height="30" as="geometry" />
        </mxCell>
        <mxCell id="w4usCfikSlc2jYTotSTE-131" value="" style="edgeStyle=orthogonalEdgeStyle;rounded=0;orthogonalLoop=1;jettySize=auto;html=1;" parent="1" source="w4usCfikSlc2jYTotSTE-132" edge="1">
          <mxGeometry relative="1" as="geometry">
            <mxPoint x="1930" y="2090.23" as="targetPoint" />
          </mxGeometry>
        </mxCell>
        <mxCell id="w4usCfikSlc2jYTotSTE-132" value="Output &quot;Ubah Penyewaan&quot;" style="shape=parallelogram;perimeter=parallelogramPerimeter;whiteSpace=wrap;html=1;fixedSize=1;" parent="1" vertex="1">
          <mxGeometry x="1870" y="1950.23" width="120" height="46.77" as="geometry" />
        </mxCell>
        <mxCell id="w4usCfikSlc2jYTotSTE-133" value="" style="edgeStyle=orthogonalEdgeStyle;rounded=0;orthogonalLoop=1;jettySize=auto;html=1;" parent="1" edge="1">
          <mxGeometry relative="1" as="geometry">
            <mxPoint x="1930" y="2230.23" as="targetPoint" />
            <mxPoint x="1930.0769230769229" y="2150.23" as="sourcePoint" />
          </mxGeometry>
        </mxCell>
        <mxCell id="w4usCfikSlc2jYTotSTE-134" value="Input &quot;nomor yang ingin diubah&quot;" style="shape=parallelogram;perimeter=parallelogramPerimeter;whiteSpace=wrap;html=1;fixedSize=1;" parent="1" vertex="1">
          <mxGeometry x="1830" y="2090" width="160" height="60" as="geometry" />
        </mxCell>
        <mxCell id="w4usCfikSlc2jYTotSTE-135" value="" style="edgeStyle=orthogonalEdgeStyle;rounded=0;orthogonalLoop=1;jettySize=auto;html=1;" parent="1" source="w4usCfikSlc2jYTotSTE-139" target="w4usCfikSlc2jYTotSTE-143" edge="1">
          <mxGeometry relative="1" as="geometry" />
        </mxCell>
        <mxCell id="w4usCfikSlc2jYTotSTE-136" value="True" style="edgeLabel;html=1;align=center;verticalAlign=middle;resizable=0;points=[];" parent="w4usCfikSlc2jYTotSTE-135" vertex="1" connectable="0">
          <mxGeometry x="-0.056" relative="1" as="geometry">
            <mxPoint as="offset" />
          </mxGeometry>
        </mxCell>
        <mxCell id="w4usCfikSlc2jYTotSTE-137" value="" style="edgeStyle=orthogonalEdgeStyle;rounded=0;orthogonalLoop=1;jettySize=auto;html=1;" parent="1" source="w4usCfikSlc2jYTotSTE-139" target="w4usCfikSlc2jYTotSTE-146" edge="1">
          <mxGeometry relative="1" as="geometry" />
        </mxCell>
        <mxCell id="w4usCfikSlc2jYTotSTE-138" value="False" style="edgeLabel;html=1;align=center;verticalAlign=middle;resizable=0;points=[];" parent="w4usCfikSlc2jYTotSTE-137" vertex="1" connectable="0">
          <mxGeometry x="-0.2937" y="-1" relative="1" as="geometry">
            <mxPoint as="offset" />
          </mxGeometry>
        </mxCell>
        <mxCell id="w4usCfikSlc2jYTotSTE-139" value="if nomor == angka&amp;nbsp;" style="rhombus;whiteSpace=wrap;html=1;" parent="1" vertex="1">
          <mxGeometry x="1880" y="2227.96" width="100" height="80" as="geometry" />
        </mxCell>
        <mxCell id="w4usCfikSlc2jYTotSTE-140" value="" style="edgeStyle=orthogonalEdgeStyle;rounded=0;orthogonalLoop=1;jettySize=auto;html=1;" parent="1" source="w4usCfikSlc2jYTotSTE-143" target="w4usCfikSlc2jYTotSTE-145" edge="1">
          <mxGeometry relative="1" as="geometry" />
        </mxCell>
        <mxCell id="w4usCfikSlc2jYTotSTE-141" value="True" style="edgeLabel;html=1;align=center;verticalAlign=middle;resizable=0;points=[];" parent="w4usCfikSlc2jYTotSTE-140" vertex="1" connectable="0">
          <mxGeometry x="-0.0656" relative="1" as="geometry">
            <mxPoint as="offset" />
          </mxGeometry>
        </mxCell>
        <mxCell id="w4usCfikSlc2jYTotSTE-142" value="" style="edgeStyle=orthogonalEdgeStyle;rounded=0;orthogonalLoop=1;jettySize=auto;html=1;" parent="1" source="w4usCfikSlc2jYTotSTE-143" target="w4usCfikSlc2jYTotSTE-147" edge="1">
          <mxGeometry relative="1" as="geometry" />
        </mxCell>
        <mxCell id="w4usCfikSlc2jYTotSTE-143" value="if nomor == data&amp;nbsp;" style="rhombus;whiteSpace=wrap;html=1;" parent="1" vertex="1">
          <mxGeometry x="1885" y="2357.73" width="90" height="80" as="geometry" />
        </mxCell>
        <mxCell id="w4usCfikSlc2jYTotSTE-150" value="" style="edgeStyle=orthogonalEdgeStyle;rounded=0;orthogonalLoop=1;jettySize=auto;html=1;" parent="1" source="w4usCfikSlc2jYTotSTE-151" target="w4usCfikSlc2jYTotSTE-148" edge="1">
          <mxGeometry relative="1" as="geometry" />
        </mxCell>
        <mxCell id="w4usCfikSlc2jYTotSTE-145" value="Input Tanggal,jam, lapangan baru" style="shape=parallelogram;perimeter=parallelogramPerimeter;whiteSpace=wrap;html=1;fixedSize=1;" parent="1" vertex="1">
          <mxGeometry x="1860" y="2487.73" width="140" height="60" as="geometry" />
        </mxCell>
        <mxCell id="w4usCfikSlc2jYTotSTE-154" value="" style="edgeStyle=orthogonalEdgeStyle;rounded=0;orthogonalLoop=1;jettySize=auto;html=1;" parent="1" source="w4usCfikSlc2jYTotSTE-146" target="w4usCfikSlc2jYTotSTE-153" edge="1">
          <mxGeometry relative="1" as="geometry">
            <mxPoint x="2240.0128205128203" y="2267.6915384615386" as="targetPoint" />
          </mxGeometry>
        </mxCell>
        <mxCell id="w4usCfikSlc2jYTotSTE-147" value="Output &quot;Nomor Tidak valid&quot;" style="shape=parallelogram;perimeter=parallelogramPerimeter;whiteSpace=wrap;html=1;fixedSize=1;" parent="1" vertex="1">
          <mxGeometry x="2030" y="2367.73" width="170" height="60" as="geometry" />
        </mxCell>
        <mxCell id="w4usCfikSlc2jYTotSTE-198" style="edgeStyle=orthogonalEdgeStyle;rounded=0;orthogonalLoop=1;jettySize=auto;html=1;exitX=0.5;exitY=1;exitDx=0;exitDy=0;" parent="1" source="w4usCfikSlc2jYTotSTE-148" edge="1">
          <mxGeometry relative="1" as="geometry">
            <mxPoint x="1930" y="3120" as="targetPoint" />
            <Array as="points">
              <mxPoint x="1930" y="2990" />
            </Array>
          </mxGeometry>
        </mxCell>
        <mxCell id="w4usCfikSlc2jYTotSTE-148" value="input tekan enter untuk kembali" style="shape=parallelogram;perimeter=parallelogramPerimeter;whiteSpace=wrap;html=1;fixedSize=1;" parent="1" vertex="1">
          <mxGeometry x="1870" y="2680.23" width="120" height="60" as="geometry" />
        </mxCell>
        <mxCell id="w4usCfikSlc2jYTotSTE-152" value="" style="edgeStyle=orthogonalEdgeStyle;rounded=0;orthogonalLoop=1;jettySize=auto;html=1;" parent="1" source="w4usCfikSlc2jYTotSTE-145" target="w4usCfikSlc2jYTotSTE-151" edge="1">
          <mxGeometry relative="1" as="geometry">
            <mxPoint x="1930" y="2548.23" as="sourcePoint" />
            <mxPoint x="1930" y="2660.23" as="targetPoint" />
          </mxGeometry>
        </mxCell>
        <mxCell id="w4usCfikSlc2jYTotSTE-151" value="Output &quot;data diubah&quot;" style="shape=parallelogram;perimeter=parallelogramPerimeter;whiteSpace=wrap;html=1;fixedSize=1;" parent="1" vertex="1">
          <mxGeometry x="1860" y="2585.46" width="140" height="60" as="geometry" />
        </mxCell>
        <mxCell id="CIbSiEcg6Qid_k_bVaX8-29" style="edgeStyle=orthogonalEdgeStyle;rounded=0;orthogonalLoop=1;jettySize=auto;html=1;exitX=1;exitY=0.5;exitDx=0;exitDy=0;" parent="1" source="w4usCfikSlc2jYTotSTE-153" edge="1">
          <mxGeometry relative="1" as="geometry">
            <mxPoint x="2380" y="3120" as="targetPoint" />
          </mxGeometry>
        </mxCell>
        <mxCell id="w4usCfikSlc2jYTotSTE-153" value="&amp;nbsp;input&quot;tekan enter untuk kembali&quot;" style="shape=parallelogram;perimeter=parallelogramPerimeter;whiteSpace=wrap;html=1;fixedSize=1;" parent="1" vertex="1">
          <mxGeometry x="2210" y="2237.5" width="120" height="60" as="geometry" />
        </mxCell>
        <mxCell id="w4usCfikSlc2jYTotSTE-184" value="" style="edgeStyle=orthogonalEdgeStyle;rounded=0;orthogonalLoop=1;jettySize=auto;html=1;" parent="1" source="w4usCfikSlc2jYTotSTE-155" target="w4usCfikSlc2jYTotSTE-183" edge="1">
          <mxGeometry relative="1" as="geometry" />
        </mxCell>
        <mxCell id="w4usCfikSlc2jYTotSTE-185" value="False" style="edgeLabel;html=1;align=center;verticalAlign=middle;resizable=0;points=[];" parent="w4usCfikSlc2jYTotSTE-184" vertex="1" connectable="0">
          <mxGeometry x="-0.1096" y="-1" relative="1" as="geometry">
            <mxPoint as="offset" />
          </mxGeometry>
        </mxCell>
        <mxCell id="w4usCfikSlc2jYTotSTE-155" value="if&amp;nbsp;&lt;div&gt;user_menu== 4&lt;/div&gt;" style="rhombus;whiteSpace=wrap;html=1;rotation=0;" parent="1" vertex="1">
          <mxGeometry x="2460" y="1795" width="130" height="90" as="geometry" />
        </mxCell>
        <mxCell id="w4usCfikSlc2jYTotSTE-161" value="" style="edgeStyle=orthogonalEdgeStyle;rounded=0;orthogonalLoop=1;jettySize=auto;html=1;" parent="1" source="w4usCfikSlc2jYTotSTE-162" target="w4usCfikSlc2jYTotSTE-164" edge="1">
          <mxGeometry relative="1" as="geometry" />
        </mxCell>
        <mxCell id="w4usCfikSlc2jYTotSTE-162" value="Output Hapus Penyewaan" style="shape=parallelogram;perimeter=parallelogramPerimeter;whiteSpace=wrap;html=1;fixedSize=1;" parent="1" vertex="1">
          <mxGeometry x="2470" y="1970" width="120" height="60" as="geometry" />
        </mxCell>
        <mxCell id="w4usCfikSlc2jYTotSTE-163" value="" style="edgeStyle=orthogonalEdgeStyle;rounded=0;orthogonalLoop=1;jettySize=auto;html=1;" parent="1" source="w4usCfikSlc2jYTotSTE-169" edge="1">
          <mxGeometry relative="1" as="geometry">
            <mxPoint x="2530" y="2250" as="targetPoint" />
          </mxGeometry>
        </mxCell>
        <mxCell id="w4usCfikSlc2jYTotSTE-164" value="Input &quot;nomor yang ingin dihapus&quot;" style="shape=parallelogram;perimeter=parallelogramPerimeter;whiteSpace=wrap;html=1;fixedSize=1;" parent="1" vertex="1">
          <mxGeometry x="2450" y="2110" width="160" height="60" as="geometry" />
        </mxCell>
        <mxCell id="w4usCfikSlc2jYTotSTE-165" value="" style="edgeStyle=orthogonalEdgeStyle;rounded=0;orthogonalLoop=1;jettySize=auto;html=1;" parent="1" source="w4usCfikSlc2jYTotSTE-169" target="w4usCfikSlc2jYTotSTE-173" edge="1">
          <mxGeometry relative="1" as="geometry" />
        </mxCell>
        <mxCell id="w4usCfikSlc2jYTotSTE-166" value="True" style="edgeLabel;html=1;align=center;verticalAlign=middle;resizable=0;points=[];" parent="w4usCfikSlc2jYTotSTE-165" vertex="1" connectable="0">
          <mxGeometry x="-0.056" relative="1" as="geometry">
            <mxPoint as="offset" />
          </mxGeometry>
        </mxCell>
        <mxCell id="w4usCfikSlc2jYTotSTE-167" value="" style="edgeStyle=orthogonalEdgeStyle;rounded=0;orthogonalLoop=1;jettySize=auto;html=1;" parent="1" source="w4usCfikSlc2jYTotSTE-169" target="w4usCfikSlc2jYTotSTE-177" edge="1">
          <mxGeometry relative="1" as="geometry" />
        </mxCell>
        <mxCell id="w4usCfikSlc2jYTotSTE-168" value="False" style="edgeLabel;html=1;align=center;verticalAlign=middle;resizable=0;points=[];" parent="w4usCfikSlc2jYTotSTE-167" vertex="1" connectable="0">
          <mxGeometry x="-0.2937" y="-1" relative="1" as="geometry">
            <mxPoint as="offset" />
          </mxGeometry>
        </mxCell>
        <mxCell id="w4usCfikSlc2jYTotSTE-170" value="" style="edgeStyle=orthogonalEdgeStyle;rounded=0;orthogonalLoop=1;jettySize=auto;html=1;" parent="1" source="w4usCfikSlc2jYTotSTE-173" target="w4usCfikSlc2jYTotSTE-175" edge="1">
          <mxGeometry relative="1" as="geometry" />
        </mxCell>
        <mxCell id="w4usCfikSlc2jYTotSTE-171" value="True" style="edgeLabel;html=1;align=center;verticalAlign=middle;resizable=0;points=[];" parent="w4usCfikSlc2jYTotSTE-170" vertex="1" connectable="0">
          <mxGeometry x="-0.0656" relative="1" as="geometry">
            <mxPoint as="offset" />
          </mxGeometry>
        </mxCell>
        <mxCell id="w4usCfikSlc2jYTotSTE-172" value="" style="edgeStyle=orthogonalEdgeStyle;rounded=0;orthogonalLoop=1;jettySize=auto;html=1;" parent="1" source="w4usCfikSlc2jYTotSTE-173" target="w4usCfikSlc2jYTotSTE-179" edge="1">
          <mxGeometry relative="1" as="geometry" />
        </mxCell>
        <mxCell id="CIbSiEcg6Qid_k_bVaX8-8" value="False" style="edgeLabel;html=1;align=center;verticalAlign=middle;resizable=0;points=[];" parent="w4usCfikSlc2jYTotSTE-172" vertex="1" connectable="0">
          <mxGeometry x="-0.2093" y="-1" relative="1" as="geometry">
            <mxPoint as="offset" />
          </mxGeometry>
        </mxCell>
        <mxCell id="w4usCfikSlc2jYTotSTE-173" value="if nomor == data&amp;nbsp;" style="rhombus;whiteSpace=wrap;html=1;" parent="1" vertex="1">
          <mxGeometry x="2485" y="2377.5" width="90" height="80" as="geometry" />
        </mxCell>
        <mxCell id="w4usCfikSlc2jYTotSTE-174" value="" style="edgeStyle=orthogonalEdgeStyle;rounded=0;orthogonalLoop=1;jettySize=auto;html=1;" parent="1" source="w4usCfikSlc2jYTotSTE-175" target="w4usCfikSlc2jYTotSTE-180" edge="1">
          <mxGeometry relative="1" as="geometry" />
        </mxCell>
        <mxCell id="w4usCfikSlc2jYTotSTE-175" value="Output Data dihapus" style="shape=parallelogram;perimeter=parallelogramPerimeter;whiteSpace=wrap;html=1;fixedSize=1;" parent="1" vertex="1">
          <mxGeometry x="2460" y="2507.5" width="140" height="60" as="geometry" />
        </mxCell>
        <mxCell id="w4usCfikSlc2jYTotSTE-176" style="edgeStyle=orthogonalEdgeStyle;rounded=0;orthogonalLoop=1;jettySize=auto;html=1;exitX=1;exitY=0.5;exitDx=0;exitDy=0;" parent="1" source="w4usCfikSlc2jYTotSTE-177" target="w4usCfikSlc2jYTotSTE-180" edge="1">
          <mxGeometry relative="1" as="geometry">
            <mxPoint x="2595" y="2642.27" as="targetPoint" />
            <Array as="points">
              <mxPoint x="2760" y="2257" />
              <mxPoint x="2786" y="2257" />
              <mxPoint x="2786" y="2642" />
            </Array>
          </mxGeometry>
        </mxCell>
        <mxCell id="w4usCfikSlc2jYTotSTE-177" value="Output &quot;input harus angka&quot;" style="shape=parallelogram;perimeter=parallelogramPerimeter;whiteSpace=wrap;html=1;fixedSize=1;" parent="1" vertex="1">
          <mxGeometry x="2640" y="2237.96" width="130" height="60" as="geometry" />
        </mxCell>
        <mxCell id="CIbSiEcg6Qid_k_bVaX8-10" style="edgeStyle=orthogonalEdgeStyle;rounded=0;orthogonalLoop=1;jettySize=auto;html=1;exitX=1;exitY=0.5;exitDx=0;exitDy=0;" parent="1" source="w4usCfikSlc2jYTotSTE-179" edge="1">
          <mxGeometry relative="1" as="geometry">
            <mxPoint x="2780" y="2417.5890410958905" as="targetPoint" />
          </mxGeometry>
        </mxCell>
        <mxCell id="w4usCfikSlc2jYTotSTE-179" value="Output &quot;Nomor Tidak valid&quot;" style="shape=parallelogram;perimeter=parallelogramPerimeter;whiteSpace=wrap;html=1;fixedSize=1;" parent="1" vertex="1">
          <mxGeometry x="2630" y="2387.5" width="140" height="60" as="geometry" />
        </mxCell>
        <mxCell id="w4usCfikSlc2jYTotSTE-197" style="edgeStyle=orthogonalEdgeStyle;rounded=0;orthogonalLoop=1;jettySize=auto;html=1;exitX=0.5;exitY=1;exitDx=0;exitDy=0;" parent="1" source="w4usCfikSlc2jYTotSTE-180" edge="1">
          <mxGeometry relative="1" as="geometry">
            <mxPoint x="2530" y="3120" as="targetPoint" />
            <Array as="points">
              <mxPoint x="2530" y="2980" />
            </Array>
          </mxGeometry>
        </mxCell>
        <mxCell id="w4usCfikSlc2jYTotSTE-180" value="input tekan enter untuk kembali" style="shape=parallelogram;perimeter=parallelogramPerimeter;whiteSpace=wrap;html=1;fixedSize=1;" parent="1" vertex="1">
          <mxGeometry x="2470" y="2617.5" width="120" height="60" as="geometry" />
        </mxCell>
        <mxCell id="w4usCfikSlc2jYTotSTE-181" style="edgeStyle=orthogonalEdgeStyle;rounded=0;orthogonalLoop=1;jettySize=auto;html=1;exitX=0.5;exitY=1;exitDx=0;exitDy=0;entryX=0.447;entryY=-0.03;entryDx=0;entryDy=0;entryPerimeter=0;" parent="1" source="w4usCfikSlc2jYTotSTE-155" target="w4usCfikSlc2jYTotSTE-162" edge="1">
          <mxGeometry relative="1" as="geometry" />
        </mxCell>
        <mxCell id="w4usCfikSlc2jYTotSTE-182" value="True" style="edgeLabel;html=1;align=center;verticalAlign=middle;resizable=0;points=[];" parent="w4usCfikSlc2jYTotSTE-181" vertex="1" connectable="0">
          <mxGeometry x="-0.0577" y="2" relative="1" as="geometry">
            <mxPoint as="offset" />
          </mxGeometry>
        </mxCell>
        <mxCell id="w4usCfikSlc2jYTotSTE-192" value="" style="edgeStyle=orthogonalEdgeStyle;rounded=0;orthogonalLoop=1;jettySize=auto;html=1;" parent="1" source="w4usCfikSlc2jYTotSTE-183" target="w4usCfikSlc2jYTotSTE-191" edge="1">
          <mxGeometry relative="1" as="geometry" />
        </mxCell>
        <mxCell id="CIbSiEcg6Qid_k_bVaX8-33" value="False" style="edgeLabel;html=1;align=center;verticalAlign=middle;resizable=0;points=[];" parent="w4usCfikSlc2jYTotSTE-192" vertex="1" connectable="0">
          <mxGeometry x="-0.4133" y="-2" relative="1" as="geometry">
            <mxPoint x="-4" y="-1" as="offset" />
          </mxGeometry>
        </mxCell>
        <mxCell id="CIbSiEcg6Qid_k_bVaX8-31" style="edgeStyle=orthogonalEdgeStyle;rounded=0;orthogonalLoop=1;jettySize=auto;html=1;exitX=0.5;exitY=0;exitDx=0;exitDy=0;entryX=0.5;entryY=1;entryDx=0;entryDy=0;" parent="1" source="w4usCfikSlc2jYTotSTE-183" target="w4usCfikSlc2jYTotSTE-189" edge="1">
          <mxGeometry relative="1" as="geometry" />
        </mxCell>
        <mxCell id="CIbSiEcg6Qid_k_bVaX8-32" value="True" style="edgeLabel;html=1;align=center;verticalAlign=middle;resizable=0;points=[];" parent="CIbSiEcg6Qid_k_bVaX8-31" vertex="1" connectable="0">
          <mxGeometry x="-0.1794" relative="1" as="geometry">
            <mxPoint as="offset" />
          </mxGeometry>
        </mxCell>
        <mxCell id="w4usCfikSlc2jYTotSTE-183" value="if user_menu&lt;div&gt;&amp;nbsp;== 5&lt;/div&gt;" style="rhombus;whiteSpace=wrap;html=1;" parent="1" vertex="1">
          <mxGeometry x="2870" y="1800" width="100" height="80" as="geometry" />
        </mxCell>
        <mxCell id="rC6qOEJCelBpkK42YzZv-79" style="edgeStyle=orthogonalEdgeStyle;rounded=0;orthogonalLoop=1;jettySize=auto;html=1;exitX=0.5;exitY=0;exitDx=0;exitDy=0;" parent="1" source="w4usCfikSlc2jYTotSTE-189" edge="1">
          <mxGeometry relative="1" as="geometry">
            <mxPoint x="920" y="730" as="targetPoint" />
            <Array as="points">
              <mxPoint x="2920" y="1130" />
              <mxPoint x="2930" y="1130" />
              <mxPoint x="2930" y="730" />
            </Array>
          </mxGeometry>
        </mxCell>
        <mxCell id="w4usCfikSlc2jYTotSTE-189" value="logged_in = false" style="whiteSpace=wrap;html=1;" parent="1" vertex="1">
          <mxGeometry x="2860" y="1590" width="120" height="60" as="geometry" />
        </mxCell>
        <mxCell id="rC6qOEJCelBpkK42YzZv-83" style="edgeStyle=orthogonalEdgeStyle;rounded=0;orthogonalLoop=1;jettySize=auto;html=1;exitX=0.5;exitY=1;exitDx=0;exitDy=0;" parent="1" source="w4usCfikSlc2jYTotSTE-190" edge="1">
          <mxGeometry relative="1" as="geometry">
            <mxPoint x="1010" y="3060" as="targetPoint" />
          </mxGeometry>
        </mxCell>
        <mxCell id="w4usCfikSlc2jYTotSTE-190" value="logged_in = False" style="whiteSpace=wrap;html=1;" parent="1" vertex="1">
          <mxGeometry x="805" y="2186.36" width="120" height="60" as="geometry" />
        </mxCell>
        <mxCell id="w4usCfikSlc2jYTotSTE-194" value="" style="edgeStyle=orthogonalEdgeStyle;rounded=0;orthogonalLoop=1;jettySize=auto;html=1;" parent="1" source="w4usCfikSlc2jYTotSTE-191" edge="1">
          <mxGeometry relative="1" as="geometry">
            <mxPoint x="3230.000000000001" y="1840.23" as="targetPoint" />
          </mxGeometry>
        </mxCell>
        <mxCell id="w4usCfikSlc2jYTotSTE-191" value="Output &quot;pilihan&lt;div&gt;&amp;nbsp;tidak valid&quot;&lt;/div&gt;" style="shape=parallelogram;perimeter=parallelogramPerimeter;whiteSpace=wrap;html=1;fixedSize=1;" parent="1" vertex="1">
          <mxGeometry x="3020" y="1810.23" width="120" height="60" as="geometry" />
        </mxCell>
        <mxCell id="CIbSiEcg6Qid_k_bVaX8-27" style="edgeStyle=orthogonalEdgeStyle;rounded=0;orthogonalLoop=1;jettySize=auto;html=1;exitX=1;exitY=0.5;exitDx=0;exitDy=0;" parent="1" source="w4usCfikSlc2jYTotSTE-193" edge="1">
          <mxGeometry relative="1" as="geometry">
            <mxPoint x="1220" y="3070" as="targetPoint" />
            <Array as="points">
              <mxPoint x="3390" y="1843" />
              <mxPoint x="3390" y="3130" />
            </Array>
          </mxGeometry>
        </mxCell>
        <mxCell id="w4usCfikSlc2jYTotSTE-193" value="Input &quot;Tekan enter sekali untuk kembali&quot;" style="shape=parallelogram;perimeter=parallelogramPerimeter;whiteSpace=wrap;html=1;fixedSize=1;" parent="1" vertex="1">
          <mxGeometry x="3220" y="1813" width="160" height="60" as="geometry" />
        </mxCell>
        <mxCell id="w4usCfikSlc2jYTotSTE-207" value="Output &quot;Login gagal&quot;" style="shape=parallelogram;perimeter=parallelogramPerimeter;whiteSpace=wrap;html=1;fixedSize=1;" parent="1" vertex="1">
          <mxGeometry x="560" y="1375" width="150" height="50" as="geometry" />
        </mxCell>
        <mxCell id="rC6qOEJCelBpkK42YzZv-78" style="edgeStyle=orthogonalEdgeStyle;rounded=0;orthogonalLoop=1;jettySize=auto;html=1;exitX=0.5;exitY=0;exitDx=0;exitDy=0;entryX=0.836;entryY=0.9;entryDx=0;entryDy=0;entryPerimeter=0;" parent="1" source="w4usCfikSlc2jYTotSTE-208" target="w4usCfikSlc2jYTotSTE-6" edge="1">
          <mxGeometry relative="1" as="geometry">
            <mxPoint x="880" y="504" as="targetPoint" />
            <Array as="points">
              <mxPoint x="910" y="1375" />
              <mxPoint x="910" y="504" />
              <mxPoint x="450" y="504" />
            </Array>
          </mxGeometry>
        </mxCell>
        <mxCell id="w4usCfikSlc2jYTotSTE-208" value="input &quot;Tekan enter untuk kembali&quot;" style="shape=parallelogram;perimeter=parallelogramPerimeter;whiteSpace=wrap;html=1;fixedSize=1;" parent="1" vertex="1">
          <mxGeometry x="795" y="1375" width="170" height="57" as="geometry" />
        </mxCell>
        <mxCell id="w4usCfikSlc2jYTotSTE-252" value="" style="edgeStyle=none;orthogonalLoop=1;jettySize=auto;html=1;rounded=0;" parent="1" edge="1">
          <mxGeometry width="100" relative="1" as="geometry">
            <mxPoint x="530" y="670" as="sourcePoint" />
            <mxPoint x="630" y="670" as="targetPoint" />
            <Array as="points" />
          </mxGeometry>
        </mxCell>
        <mxCell id="w4usCfikSlc2jYTotSTE-253" value="" style="edgeStyle=none;orthogonalLoop=1;jettySize=auto;html=1;rounded=0;" parent="1" edge="1">
          <mxGeometry width="100" relative="1" as="geometry">
            <mxPoint x="295" y="760" as="sourcePoint" />
            <mxPoint x="395" y="760" as="targetPoint" />
            <Array as="points" />
          </mxGeometry>
        </mxCell>
        <mxCell id="w4usCfikSlc2jYTotSTE-258" value="" style="edgeStyle=none;orthogonalLoop=1;jettySize=auto;html=1;rounded=0;" parent="1" edge="1">
          <mxGeometry width="100" relative="1" as="geometry">
            <mxPoint x="415" y="1100" as="sourcePoint" />
            <mxPoint x="515" y="1100" as="targetPoint" />
            <Array as="points" />
          </mxGeometry>
        </mxCell>
        <mxCell id="w4usCfikSlc2jYTotSTE-259" value="" style="edgeStyle=none;orthogonalLoop=1;jettySize=auto;html=1;rounded=0;" parent="1" edge="1">
          <mxGeometry width="100" relative="1" as="geometry">
            <mxPoint x="280" y="1200" as="sourcePoint" />
            <mxPoint x="380" y="1200" as="targetPoint" />
            <Array as="points" />
          </mxGeometry>
        </mxCell>
        <mxCell id="w4usCfikSlc2jYTotSTE-261" value="" style="edgeStyle=none;orthogonalLoop=1;jettySize=auto;html=1;rounded=0;" parent="1" edge="1">
          <mxGeometry width="100" relative="1" as="geometry">
            <mxPoint x="645" y="1417" as="sourcePoint" />
            <mxPoint x="745" y="1417" as="targetPoint" />
            <Array as="points">
              <mxPoint x="695" y="1417" />
            </Array>
          </mxGeometry>
        </mxCell>
        <mxCell id="w4usCfikSlc2jYTotSTE-266" value="" style="edgeStyle=none;orthogonalLoop=1;jettySize=auto;html=1;rounded=0;" parent="1" edge="1">
          <mxGeometry width="100" relative="1" as="geometry">
            <mxPoint x="550" y="1730" as="sourcePoint" />
            <mxPoint x="650" y="1730" as="targetPoint" />
            <Array as="points" />
          </mxGeometry>
        </mxCell>
        <mxCell id="w4usCfikSlc2jYTotSTE-272" value="" style="edgeStyle=none;orthogonalLoop=1;jettySize=auto;html=1;rounded=0;" parent="1" edge="1">
          <mxGeometry width="100" relative="1" as="geometry">
            <mxPoint x="440" y="1879.43" as="sourcePoint" />
            <mxPoint x="540" y="1879.43" as="targetPoint" />
            <Array as="points" />
          </mxGeometry>
        </mxCell>
        <mxCell id="w4usCfikSlc2jYTotSTE-273" value="" style="edgeStyle=none;orthogonalLoop=1;jettySize=auto;html=1;rounded=0;" parent="1" edge="1">
          <mxGeometry width="100" relative="1" as="geometry">
            <mxPoint x="390" y="2245.56" as="sourcePoint" />
            <mxPoint x="490" y="2245.56" as="targetPoint" />
            <Array as="points" />
          </mxGeometry>
        </mxCell>
        <mxCell id="w4usCfikSlc2jYTotSTE-274" value="" style="edgeStyle=none;orthogonalLoop=1;jettySize=auto;html=1;rounded=0;" parent="1" edge="1">
          <mxGeometry width="100" relative="1" as="geometry">
            <mxPoint x="560" y="2246.36" as="sourcePoint" />
            <mxPoint x="660" y="2246.36" as="targetPoint" />
            <Array as="points" />
          </mxGeometry>
        </mxCell>
        <mxCell id="w4usCfikSlc2jYTotSTE-275" value="" style="edgeStyle=none;orthogonalLoop=1;jettySize=auto;html=1;rounded=0;" parent="1" edge="1">
          <mxGeometry width="100" relative="1" as="geometry">
            <mxPoint x="290" y="2333.47" as="sourcePoint" />
            <mxPoint x="390" y="2333.47" as="targetPoint" />
            <Array as="points" />
          </mxGeometry>
        </mxCell>
        <mxCell id="w4usCfikSlc2jYTotSTE-276" value="" style="edgeStyle=none;orthogonalLoop=1;jettySize=auto;html=1;rounded=0;" parent="1" edge="1">
          <mxGeometry width="100" relative="1" as="geometry">
            <mxPoint x="500" y="2346.36" as="sourcePoint" />
            <mxPoint x="575" y="2346.36" as="targetPoint" />
            <Array as="points" />
          </mxGeometry>
        </mxCell>
        <mxCell id="w4usCfikSlc2jYTotSTE-277" value="" style="edgeStyle=none;orthogonalLoop=1;jettySize=auto;html=1;rounded=0;" parent="1" edge="1">
          <mxGeometry width="100" relative="1" as="geometry">
            <mxPoint x="715" y="2506.36" as="sourcePoint" />
            <mxPoint x="815" y="2506.36" as="targetPoint" />
            <Array as="points" />
          </mxGeometry>
        </mxCell>
        <mxCell id="w4usCfikSlc2jYTotSTE-278" value="" style="edgeStyle=none;orthogonalLoop=1;jettySize=auto;html=1;rounded=0;" parent="1" edge="1">
          <mxGeometry width="100" relative="1" as="geometry">
            <mxPoint x="745" y="2664.36" as="sourcePoint" />
            <mxPoint x="820" y="2663.86" as="targetPoint" />
            <Array as="points" />
          </mxGeometry>
        </mxCell>
        <mxCell id="w4usCfikSlc2jYTotSTE-279" value="" style="edgeStyle=none;orthogonalLoop=1;jettySize=auto;html=1;rounded=0;" parent="1" edge="1">
          <mxGeometry width="100" relative="1" as="geometry">
            <mxPoint x="550" y="2856.36" as="sourcePoint" />
            <mxPoint x="650" y="2856.36" as="targetPoint" />
            <Array as="points" />
          </mxGeometry>
        </mxCell>
        <mxCell id="w4usCfikSlc2jYTotSTE-280" value="" style="edgeStyle=none;orthogonalLoop=1;jettySize=auto;html=1;rounded=0;" parent="1" edge="1">
          <mxGeometry width="100" relative="1" as="geometry">
            <mxPoint x="480" y="2906.36" as="sourcePoint" />
            <mxPoint x="580" y="2906.36" as="targetPoint" />
            <Array as="points" />
          </mxGeometry>
        </mxCell>
        <mxCell id="w4usCfikSlc2jYTotSTE-281" value="" style="edgeStyle=none;orthogonalLoop=1;jettySize=auto;html=1;rounded=0;" parent="1" edge="1">
          <mxGeometry width="100" relative="1" as="geometry">
            <mxPoint x="1010" y="2086" as="sourcePoint" />
            <mxPoint x="1110" y="2086" as="targetPoint" />
            <Array as="points" />
          </mxGeometry>
        </mxCell>
        <mxCell id="w4usCfikSlc2jYTotSTE-282" value="" style="edgeStyle=none;orthogonalLoop=1;jettySize=auto;html=1;rounded=0;" parent="1" edge="1">
          <mxGeometry width="100" relative="1" as="geometry">
            <mxPoint x="1140" y="2048.73" as="sourcePoint" />
            <mxPoint x="1240" y="2048.73" as="targetPoint" />
            <Array as="points" />
          </mxGeometry>
        </mxCell>
        <mxCell id="w4usCfikSlc2jYTotSTE-283" value="" style="edgeStyle=none;orthogonalLoop=1;jettySize=auto;html=1;rounded=0;" parent="1" edge="1">
          <mxGeometry width="100" relative="1" as="geometry">
            <mxPoint x="1470" y="1680" as="sourcePoint" />
            <mxPoint x="1570" y="1680" as="targetPoint" />
            <Array as="points" />
          </mxGeometry>
        </mxCell>
        <mxCell id="w4usCfikSlc2jYTotSTE-284" value="" style="edgeStyle=none;orthogonalLoop=1;jettySize=auto;html=1;rounded=0;" parent="1" edge="1">
          <mxGeometry width="100" relative="1" as="geometry">
            <mxPoint x="1530" y="1972.91" as="sourcePoint" />
            <mxPoint x="1630" y="1972.91" as="targetPoint" />
            <Array as="points" />
          </mxGeometry>
        </mxCell>
        <mxCell id="w4usCfikSlc2jYTotSTE-285" value="" style="edgeStyle=none;orthogonalLoop=1;jettySize=auto;html=1;rounded=0;" parent="1" edge="1">
          <mxGeometry width="100" relative="1" as="geometry">
            <mxPoint x="1490" y="2070" as="sourcePoint" />
            <mxPoint x="1560" y="2070" as="targetPoint" />
            <Array as="points" />
          </mxGeometry>
        </mxCell>
        <mxCell id="w4usCfikSlc2jYTotSTE-286" value="" style="edgeStyle=none;orthogonalLoop=1;jettySize=auto;html=1;rounded=0;" parent="1" edge="1">
          <mxGeometry width="100" relative="1" as="geometry">
            <mxPoint x="1560" y="2240" as="sourcePoint" />
            <mxPoint x="1660" y="2240" as="targetPoint" />
            <Array as="points" />
          </mxGeometry>
        </mxCell>
        <mxCell id="w4usCfikSlc2jYTotSTE-287" value="" style="edgeStyle=none;orthogonalLoop=1;jettySize=auto;html=1;rounded=0;" parent="1" edge="1">
          <mxGeometry width="100" relative="1" as="geometry">
            <mxPoint x="1450" y="2340" as="sourcePoint" />
            <mxPoint x="1550" y="2340" as="targetPoint" />
            <Array as="points" />
          </mxGeometry>
        </mxCell>
        <mxCell id="w4usCfikSlc2jYTotSTE-288" value="" style="edgeStyle=none;orthogonalLoop=1;jettySize=auto;html=1;rounded=0;" parent="1" edge="1">
          <mxGeometry width="100" relative="1" as="geometry">
            <mxPoint x="1710" y="1982.73" as="sourcePoint" />
            <mxPoint x="1810" y="1982.73" as="targetPoint" />
            <Array as="points" />
          </mxGeometry>
        </mxCell>
        <mxCell id="w4usCfikSlc2jYTotSTE-289" value="" style="edgeStyle=none;orthogonalLoop=1;jettySize=auto;html=1;rounded=0;" parent="1" edge="1">
          <mxGeometry width="100" relative="1" as="geometry">
            <mxPoint x="1650" y="2070" as="sourcePoint" />
            <mxPoint x="1730" y="2070" as="targetPoint" />
            <Array as="points" />
          </mxGeometry>
        </mxCell>
        <mxCell id="w4usCfikSlc2jYTotSTE-290" value="" style="edgeStyle=none;orthogonalLoop=1;jettySize=auto;html=1;rounded=0;" parent="1" edge="1">
          <mxGeometry width="100" relative="1" as="geometry">
            <mxPoint x="1930" y="1992.13" as="sourcePoint" />
            <mxPoint x="2030" y="1992.13" as="targetPoint" />
            <Array as="points" />
          </mxGeometry>
        </mxCell>
        <mxCell id="w4usCfikSlc2jYTotSTE-291" value="" style="edgeStyle=none;orthogonalLoop=1;jettySize=auto;html=1;rounded=0;" parent="1" edge="1">
          <mxGeometry width="100" relative="1" as="geometry">
            <mxPoint x="1830" y="2097" as="sourcePoint" />
            <mxPoint x="1900" y="2096.93" as="targetPoint" />
            <Array as="points" />
          </mxGeometry>
        </mxCell>
        <mxCell id="w4usCfikSlc2jYTotSTE-293" value="" style="edgeStyle=none;orthogonalLoop=1;jettySize=auto;html=1;rounded=0;" parent="1" edge="1">
          <mxGeometry width="100" relative="1" as="geometry">
            <mxPoint x="2180" y="2247.06" as="sourcePoint" />
            <mxPoint x="2280" y="2247.06" as="targetPoint" />
            <Array as="points" />
          </mxGeometry>
        </mxCell>
        <mxCell id="w4usCfikSlc2jYTotSTE-294" value="" style="edgeStyle=none;orthogonalLoop=1;jettySize=auto;html=1;rounded=0;" parent="1" edge="1">
          <mxGeometry width="100" relative="1" as="geometry">
            <mxPoint x="2140" y="2417.4" as="sourcePoint" />
            <mxPoint x="2240" y="2417.4" as="targetPoint" />
            <Array as="points" />
          </mxGeometry>
        </mxCell>
        <mxCell id="w4usCfikSlc2jYTotSTE-295" value="" style="edgeStyle=none;orthogonalLoop=1;jettySize=auto;html=1;rounded=0;" parent="1" edge="1">
          <mxGeometry width="100" relative="1" as="geometry">
            <mxPoint x="1815" y="2500" as="sourcePoint" />
            <mxPoint x="1915" y="2500" as="targetPoint" />
            <Array as="points" />
          </mxGeometry>
        </mxCell>
        <mxCell id="w4usCfikSlc2jYTotSTE-296" value="" style="edgeStyle=none;orthogonalLoop=1;jettySize=auto;html=1;rounded=0;" parent="1" edge="1">
          <mxGeometry width="100" relative="1" as="geometry">
            <mxPoint x="1920" y="2635.46" as="sourcePoint" />
            <mxPoint x="2020" y="2635.46" as="targetPoint" />
            <Array as="points" />
          </mxGeometry>
        </mxCell>
        <mxCell id="w4usCfikSlc2jYTotSTE-297" value="" style="edgeStyle=none;orthogonalLoop=1;jettySize=auto;html=1;rounded=0;" parent="1" edge="1">
          <mxGeometry width="100" relative="1" as="geometry">
            <mxPoint x="1815" y="2690" as="sourcePoint" />
            <mxPoint x="1915" y="2690" as="targetPoint" />
            <Array as="points" />
          </mxGeometry>
        </mxCell>
        <mxCell id="w4usCfikSlc2jYTotSTE-298" value="" style="edgeStyle=none;orthogonalLoop=1;jettySize=auto;html=1;rounded=0;" parent="1" edge="1">
          <mxGeometry width="100" relative="1" as="geometry">
            <mxPoint x="2510" y="2022.4300000000003" as="sourcePoint" />
            <mxPoint x="2610" y="2022.4300000000003" as="targetPoint" />
            <Array as="points" />
          </mxGeometry>
        </mxCell>
        <mxCell id="w4usCfikSlc2jYTotSTE-299" value="" style="edgeStyle=none;orthogonalLoop=1;jettySize=auto;html=1;rounded=0;" parent="1" edge="1">
          <mxGeometry width="100" relative="1" as="geometry">
            <mxPoint x="2440" y="2119.6" as="sourcePoint" />
            <mxPoint x="2540" y="2119.6" as="targetPoint" />
            <Array as="points" />
          </mxGeometry>
        </mxCell>
        <mxCell id="w4usCfikSlc2jYTotSTE-300" value="" style="edgeStyle=none;orthogonalLoop=1;jettySize=auto;html=1;rounded=0;" parent="1" edge="1">
          <mxGeometry width="100" relative="1" as="geometry">
            <mxPoint x="2670" y="2290" as="sourcePoint" />
            <mxPoint x="2770" y="2290" as="targetPoint" />
            <Array as="points" />
          </mxGeometry>
        </mxCell>
        <mxCell id="w4usCfikSlc2jYTotSTE-301" value="" style="edgeStyle=none;orthogonalLoop=1;jettySize=auto;html=1;rounded=0;" parent="1" edge="1">
          <mxGeometry width="100" relative="1" as="geometry">
            <mxPoint x="2670" y="2437.5" as="sourcePoint" />
            <mxPoint x="2770" y="2437.5" as="targetPoint" />
            <Array as="points" />
          </mxGeometry>
        </mxCell>
        <mxCell id="w4usCfikSlc2jYTotSTE-302" value="" style="edgeStyle=none;orthogonalLoop=1;jettySize=auto;html=1;rounded=0;" parent="1" edge="1">
          <mxGeometry width="100" relative="1" as="geometry">
            <mxPoint x="2440" y="2630" as="sourcePoint" />
            <mxPoint x="2540" y="2630" as="targetPoint" />
            <Array as="points" />
          </mxGeometry>
        </mxCell>
        <mxCell id="w4usCfikSlc2jYTotSTE-303" value="" style="edgeStyle=none;orthogonalLoop=1;jettySize=auto;html=1;rounded=0;" parent="1" edge="1">
          <mxGeometry width="100" relative="1" as="geometry">
            <mxPoint x="3060" y="1860" as="sourcePoint" />
            <mxPoint x="3160" y="1860" as="targetPoint" />
            <Array as="points" />
          </mxGeometry>
        </mxCell>
        <mxCell id="w4usCfikSlc2jYTotSTE-304" value="" style="edgeStyle=none;orthogonalLoop=1;jettySize=auto;html=1;rounded=0;" parent="1" edge="1">
          <mxGeometry width="100" relative="1" as="geometry">
            <mxPoint x="3190" y="1822.77" as="sourcePoint" />
            <mxPoint x="3290" y="1822.77" as="targetPoint" />
            <Array as="points" />
          </mxGeometry>
        </mxCell>
        <mxCell id="yLmZNPnP0pqB-7X6kR3p-4" value="END" style="ellipse;whiteSpace=wrap;html=1;" parent="1" vertex="1">
          <mxGeometry x="330" y="3340" width="150" height="80" as="geometry" />
        </mxCell>
        <mxCell id="CIbSiEcg6Qid_k_bVaX8-2" value="" style="edgeStyle=none;orthogonalLoop=1;jettySize=auto;html=1;rounded=0;" parent="1" target="w4usCfikSlc2jYTotSTE-146" edge="1">
          <mxGeometry width="100" relative="1" as="geometry">
            <mxPoint x="2060" y="2257.33" as="sourcePoint" />
            <mxPoint x="2160" y="2257.33" as="targetPoint" />
            <Array as="points" />
          </mxGeometry>
        </mxCell>
        <mxCell id="w4usCfikSlc2jYTotSTE-146" value="Output &quot;input harus angka&quot;" style="shape=parallelogram;perimeter=parallelogramPerimeter;whiteSpace=wrap;html=1;fixedSize=1;" parent="1" vertex="1">
          <mxGeometry x="2025" y="2229.21" width="130" height="77.5" as="geometry" />
        </mxCell>
        <mxCell id="CIbSiEcg6Qid_k_bVaX8-3" value="" style="edgeStyle=none;orthogonalLoop=1;jettySize=auto;html=1;rounded=0;" parent="1" edge="1">
          <mxGeometry width="100" relative="1" as="geometry">
            <mxPoint x="2070" y="2297.06" as="sourcePoint" />
            <mxPoint x="2170" y="2297.06" as="targetPoint" />
            <Array as="points" />
          </mxGeometry>
        </mxCell>
        <mxCell id="CIbSiEcg6Qid_k_bVaX8-7" value="" style="edgeStyle=orthogonalEdgeStyle;rounded=0;orthogonalLoop=1;jettySize=auto;html=1;" parent="1" source="w4usCfikSlc2jYTotSTE-164" target="w4usCfikSlc2jYTotSTE-169" edge="1">
          <mxGeometry relative="1" as="geometry">
            <mxPoint x="2530" y="2250" as="targetPoint" />
            <mxPoint x="2530" y="2170" as="sourcePoint" />
          </mxGeometry>
        </mxCell>
        <mxCell id="w4usCfikSlc2jYTotSTE-169" value="if nomor == angka&amp;nbsp;" style="rhombus;whiteSpace=wrap;html=1;" parent="1" vertex="1">
          <mxGeometry x="2480" y="2221.71" width="100" height="92.5" as="geometry" />
        </mxCell>
        <mxCell id="CIbSiEcg6Qid_k_bVaX8-11" value="" style="edgeStyle=none;orthogonalLoop=1;jettySize=auto;html=1;rounded=0;" parent="1" edge="1">
          <mxGeometry width="100" relative="1" as="geometry">
            <mxPoint x="2520" y="2554.97" as="sourcePoint" />
            <mxPoint x="2620" y="2554.97" as="targetPoint" />
            <Array as="points" />
          </mxGeometry>
        </mxCell>
        <mxCell id="CIbSiEcg6Qid_k_bVaX8-17" value="" style="edgeStyle=orthogonalEdgeStyle;rounded=0;orthogonalLoop=1;jettySize=auto;html=1;" parent="1" source="w4usCfikSlc2jYTotSTE-42" target="w4usCfikSlc2jYTotSTE-46" edge="1">
          <mxGeometry relative="1" as="geometry">
            <mxPoint x="585" y="2474.09" as="targetPoint" />
            <mxPoint x="585" y="2394.36" as="sourcePoint" />
          </mxGeometry>
        </mxCell>
        <mxCell id="w4usCfikSlc2jYTotSTE-46" value="if nomor == angka&amp;nbsp;" style="rhombus;whiteSpace=wrap;html=1;" parent="1" vertex="1">
          <mxGeometry x="537.5" y="2444.09" width="95" height="80" as="geometry" />
        </mxCell>
        <mxCell id="CIbSiEcg6Qid_k_bVaX8-19" value="input menu&lt;div&gt;&amp;nbsp;admin&lt;/div&gt;" style="shape=parallelogram;perimeter=parallelogramPerimeter;whiteSpace=wrap;html=1;fixedSize=1;" parent="1" vertex="1">
          <mxGeometry x="340" y="1920" width="120" height="60" as="geometry" />
        </mxCell>
        <mxCell id="CIbSiEcg6Qid_k_bVaX8-20" style="edgeStyle=orthogonalEdgeStyle;rounded=0;orthogonalLoop=1;jettySize=auto;html=1;exitX=0.5;exitY=1;exitDx=0;exitDy=0;entryX=0.561;entryY=0.039;entryDx=0;entryDy=0;entryPerimeter=0;" parent="1" source="w4usCfikSlc2jYTotSTE-22" target="CIbSiEcg6Qid_k_bVaX8-19" edge="1">
          <mxGeometry relative="1" as="geometry" />
        </mxCell>
        <mxCell id="CIbSiEcg6Qid_k_bVaX8-21" style="edgeStyle=orthogonalEdgeStyle;rounded=0;orthogonalLoop=1;jettySize=auto;html=1;exitX=0.5;exitY=1;exitDx=0;exitDy=0;entryX=0.524;entryY=0.057;entryDx=0;entryDy=0;entryPerimeter=0;" parent="1" source="CIbSiEcg6Qid_k_bVaX8-19" target="w4usCfikSlc2jYTotSTE-25" edge="1">
          <mxGeometry relative="1" as="geometry" />
        </mxCell>
        <mxCell id="CIbSiEcg6Qid_k_bVaX8-22" value="" style="edgeStyle=none;orthogonalLoop=1;jettySize=auto;html=1;rounded=0;" parent="1" edge="1">
          <mxGeometry width="100" relative="1" as="geometry">
            <mxPoint x="310" y="1932.73" as="sourcePoint" />
            <mxPoint x="410" y="1932.73" as="targetPoint" />
            <Array as="points" />
          </mxGeometry>
        </mxCell>
        <mxCell id="rC6qOEJCelBpkK42YzZv-5" style="edgeStyle=orthogonalEdgeStyle;rounded=0;orthogonalLoop=1;jettySize=auto;html=1;exitX=1;exitY=0.5;exitDx=0;exitDy=0;entryX=0.029;entryY=0.441;entryDx=0;entryDy=0;entryPerimeter=0;" parent="1" source="w4usCfikSlc2jYTotSTE-207" edge="1">
          <mxGeometry relative="1" as="geometry">
            <mxPoint x="710" y="1399.64" as="sourcePoint" />
            <mxPoint x="809.9300000000003" y="1399.777" as="targetPoint" />
            <Array as="points" />
          </mxGeometry>
        </mxCell>
        <mxCell id="rC6qOEJCelBpkK42YzZv-8" value="False" style="edgeLabel;html=1;align=center;verticalAlign=middle;resizable=0;points=[];" parent="1" vertex="1" connectable="0">
          <mxGeometry x="216.45999999999978" y="918" as="geometry">
            <mxPoint x="70" y="-3" as="offset" />
          </mxGeometry>
        </mxCell>
        <mxCell id="rC6qOEJCelBpkK42YzZv-62" style="edgeStyle=orthogonalEdgeStyle;rounded=0;orthogonalLoop=1;jettySize=auto;html=1;exitX=0.5;exitY=0;exitDx=0;exitDy=0;" parent="1" source="rC6qOEJCelBpkK42YzZv-9" target="rC6qOEJCelBpkK42YzZv-49" edge="1">
          <mxGeometry relative="1" as="geometry" />
        </mxCell>
        <mxCell id="rC6qOEJCelBpkK42YzZv-63" value="True" style="edgeLabel;html=1;align=center;verticalAlign=middle;resizable=0;points=[];" parent="rC6qOEJCelBpkK42YzZv-62" vertex="1" connectable="0">
          <mxGeometry x="-0.2113" y="1" relative="1" as="geometry">
            <mxPoint as="offset" />
          </mxGeometry>
        </mxCell>
        <mxCell id="rC6qOEJCelBpkK42YzZv-9" value="menu == 2" style="rhombus;whiteSpace=wrap;html=1;" parent="1" vertex="1">
          <mxGeometry x="79.23" y="879" width="80" height="80" as="geometry" />
        </mxCell>
        <mxCell id="rC6qOEJCelBpkK42YzZv-29" value="" style="edgeStyle=orthogonalEdgeStyle;rounded=0;orthogonalLoop=1;jettySize=auto;html=1;" parent="1" source="rC6qOEJCelBpkK42YzZv-32" edge="1">
          <mxGeometry relative="1" as="geometry">
            <mxPoint x="-162.5010526315791" y="1050" as="targetPoint" />
          </mxGeometry>
        </mxCell>
        <mxCell id="rC6qOEJCelBpkK42YzZv-30" value="True" style="edgeLabel;html=1;align=center;verticalAlign=middle;resizable=0;points=[];" parent="rC6qOEJCelBpkK42YzZv-29" vertex="1" connectable="0">
          <mxGeometry x="-0.0157" relative="1" as="geometry">
            <mxPoint as="offset" />
          </mxGeometry>
        </mxCell>
        <mxCell id="rC6qOEJCelBpkK42YzZv-37" value="" style="edgeStyle=orthogonalEdgeStyle;rounded=0;orthogonalLoop=1;jettySize=auto;html=1;" parent="1" source="rC6qOEJCelBpkK42YzZv-32" target="rC6qOEJCelBpkK42YzZv-36" edge="1">
          <mxGeometry relative="1" as="geometry" />
        </mxCell>
        <mxCell id="rC6qOEJCelBpkK42YzZv-47" value="false" style="edgeLabel;html=1;align=center;verticalAlign=middle;resizable=0;points=[];" parent="rC6qOEJCelBpkK42YzZv-37" vertex="1" connectable="0">
          <mxGeometry x="0.0977" relative="1" as="geometry">
            <mxPoint as="offset" />
          </mxGeometry>
        </mxCell>
        <mxCell id="rC6qOEJCelBpkK42YzZv-32" value="menu == 3" style="rhombus;whiteSpace=wrap;html=1;" parent="1" vertex="1">
          <mxGeometry x="-202.50105263157894" y="879" width="80" height="80" as="geometry" />
        </mxCell>
        <mxCell id="rC6qOEJCelBpkK42YzZv-77" style="edgeStyle=orthogonalEdgeStyle;rounded=0;orthogonalLoop=1;jettySize=auto;html=1;exitX=0.5;exitY=1;exitDx=0;exitDy=0;entryX=0;entryY=0.5;entryDx=0;entryDy=0;" parent="1" source="rC6qOEJCelBpkK42YzZv-33" target="yLmZNPnP0pqB-7X6kR3p-4" edge="1">
          <mxGeometry relative="1" as="geometry">
            <mxPoint x="-500" y="3380" as="targetPoint" />
            <Array as="points">
              <mxPoint x="-164" y="1230" />
              <mxPoint x="-450" y="1230" />
              <mxPoint x="-450" y="3380" />
            </Array>
          </mxGeometry>
        </mxCell>
        <mxCell id="rC6qOEJCelBpkK42YzZv-33" value="Output &quot;Terima kasih telah menggunakan sistem ini.&quot;" style="shape=parallelogram;perimeter=parallelogramPerimeter;whiteSpace=wrap;html=1;fixedSize=1;" parent="1" vertex="1">
          <mxGeometry x="-253.64105263157893" y="1049" width="180" height="60" as="geometry" />
        </mxCell>
        <mxCell id="rC6qOEJCelBpkK42YzZv-34" style="edgeStyle=orthogonalEdgeStyle;rounded=0;orthogonalLoop=1;jettySize=auto;html=1;exitX=0;exitY=0.5;exitDx=0;exitDy=0;entryX=0.906;entryY=0.512;entryDx=0;entryDy=0;entryPerimeter=0;" parent="1" source="rC6qOEJCelBpkK42YzZv-9" target="rC6qOEJCelBpkK42YzZv-32" edge="1">
          <mxGeometry relative="1" as="geometry" />
        </mxCell>
        <mxCell id="rC6qOEJCelBpkK42YzZv-35" value="False" style="edgeLabel;html=1;align=center;verticalAlign=middle;resizable=0;points=[];" parent="rC6qOEJCelBpkK42YzZv-34" vertex="1" connectable="0">
          <mxGeometry x="0.0436" y="-4" relative="1" as="geometry">
            <mxPoint as="offset" />
          </mxGeometry>
        </mxCell>
        <mxCell id="rC6qOEJCelBpkK42YzZv-39" value="" style="edgeStyle=orthogonalEdgeStyle;rounded=0;orthogonalLoop=1;jettySize=auto;html=1;" parent="1" source="rC6qOEJCelBpkK42YzZv-36" target="rC6qOEJCelBpkK42YzZv-38" edge="1">
          <mxGeometry relative="1" as="geometry" />
        </mxCell>
        <mxCell id="rC6qOEJCelBpkK42YzZv-36" value="Output&quot; pilihan&amp;nbsp;&lt;div&gt;tidak valid&quot;&lt;/div&gt;" style="shape=parallelogram;perimeter=parallelogramPerimeter;whiteSpace=wrap;html=1;fixedSize=1;" parent="1" vertex="1">
          <mxGeometry x="-400.00105263157894" y="889" width="120" height="60" as="geometry" />
        </mxCell>
        <mxCell id="_XKMSrLQV55QpAD1e9-a-1" style="edgeStyle=orthogonalEdgeStyle;rounded=0;orthogonalLoop=1;jettySize=auto;html=1;exitX=0;exitY=0.5;exitDx=0;exitDy=0;" edge="1" parent="1" source="rC6qOEJCelBpkK42YzZv-38">
          <mxGeometry relative="1" as="geometry">
            <mxPoint x="-450" y="540" as="targetPoint" />
            <Array as="points">
              <mxPoint x="-639" y="920" />
              <mxPoint x="-639" y="540" />
            </Array>
          </mxGeometry>
        </mxCell>
        <mxCell id="rC6qOEJCelBpkK42YzZv-38" value="input &quot;tekan enter&lt;div&gt;untuk kembali&quot;&lt;/div&gt;" style="shape=parallelogram;perimeter=parallelogramPerimeter;whiteSpace=wrap;html=1;fixedSize=1;" parent="1" vertex="1">
          <mxGeometry x="-600" y="890" width="137.5" height="59" as="geometry" />
        </mxCell>
        <mxCell id="w4usCfikSlc2jYTotSTE-255" value="" style="edgeStyle=none;orthogonalLoop=1;jettySize=auto;html=1;rounded=0;" parent="1" edge="1">
          <mxGeometry width="100" relative="1" as="geometry">
            <mxPoint x="-550.0000000000001" y="900" as="sourcePoint" />
            <mxPoint x="-450.0000000000001" y="900" as="targetPoint" />
            <Array as="points" />
          </mxGeometry>
        </mxCell>
        <mxCell id="rC6qOEJCelBpkK42YzZv-46" value="" style="edgeStyle=none;orthogonalLoop=1;jettySize=auto;html=1;rounded=0;" parent="1" edge="1">
          <mxGeometry width="100" relative="1" as="geometry">
            <mxPoint x="-340" y="940" as="sourcePoint" />
            <mxPoint x="-240" y="940" as="targetPoint" />
            <Array as="points" />
          </mxGeometry>
        </mxCell>
        <mxCell id="rC6qOEJCelBpkK42YzZv-53" value="" style="edgeStyle=orthogonalEdgeStyle;rounded=0;orthogonalLoop=1;jettySize=auto;html=1;entryX=0.5;entryY=1;entryDx=0;entryDy=0;" parent="1" source="rC6qOEJCelBpkK42YzZv-49" target="rC6qOEJCelBpkK42YzZv-54" edge="1">
          <mxGeometry relative="1" as="geometry">
            <mxPoint x="120" y="745" as="targetPoint" />
          </mxGeometry>
        </mxCell>
        <mxCell id="rC6qOEJCelBpkK42YzZv-49" value="Output &quot;register&quot;" style="shape=parallelogram;perimeter=parallelogramPerimeter;whiteSpace=wrap;html=1;fixedSize=1;" parent="1" vertex="1">
          <mxGeometry x="58.46000000000001" y="775" width="120" height="60" as="geometry" />
        </mxCell>
        <mxCell id="rC6qOEJCelBpkK42YzZv-56" value="" style="edgeStyle=orthogonalEdgeStyle;rounded=0;orthogonalLoop=1;jettySize=auto;html=1;" parent="1" source="rC6qOEJCelBpkK42YzZv-54" target="rC6qOEJCelBpkK42YzZv-55" edge="1">
          <mxGeometry relative="1" as="geometry" />
        </mxCell>
        <mxCell id="rC6qOEJCelBpkK42YzZv-54" value="Input username &amp;amp;&lt;div&gt;password&lt;/div&gt;" style="shape=parallelogram;perimeter=parallelogramPerimeter;whiteSpace=wrap;html=1;fixedSize=1;" parent="1" vertex="1">
          <mxGeometry x="50.96" y="680" width="135" height="60" as="geometry" />
        </mxCell>
        <mxCell id="rC6qOEJCelBpkK42YzZv-64" style="edgeStyle=orthogonalEdgeStyle;rounded=0;orthogonalLoop=1;jettySize=auto;html=1;exitX=1;exitY=0.5;exitDx=0;exitDy=0;entryX=0;entryY=0.5;entryDx=0;entryDy=0;" parent="1" source="rC6qOEJCelBpkK42YzZv-55" target="rC6qOEJCelBpkK42YzZv-59" edge="1">
          <mxGeometry relative="1" as="geometry" />
        </mxCell>
        <mxCell id="rC6qOEJCelBpkK42YzZv-65" value="True" style="edgeLabel;html=1;align=center;verticalAlign=middle;resizable=0;points=[];" parent="rC6qOEJCelBpkK42YzZv-64" vertex="1" connectable="0">
          <mxGeometry x="-0.2198" y="2" relative="1" as="geometry">
            <mxPoint as="offset" />
          </mxGeometry>
        </mxCell>
        <mxCell id="rC6qOEJCelBpkK42YzZv-67" value="" style="edgeStyle=orthogonalEdgeStyle;rounded=0;orthogonalLoop=1;jettySize=auto;html=1;" parent="1" source="rC6qOEJCelBpkK42YzZv-55" target="rC6qOEJCelBpkK42YzZv-66" edge="1">
          <mxGeometry relative="1" as="geometry" />
        </mxCell>
        <mxCell id="rC6qOEJCelBpkK42YzZv-68" value="false" style="edgeLabel;html=1;align=center;verticalAlign=middle;resizable=0;points=[];" parent="rC6qOEJCelBpkK42YzZv-67" vertex="1" connectable="0">
          <mxGeometry x="-0.2501" y="1" relative="1" as="geometry">
            <mxPoint as="offset" />
          </mxGeometry>
        </mxCell>
        <mxCell id="rC6qOEJCelBpkK42YzZv-55" value="if username sudah ada" style="rhombus;whiteSpace=wrap;html=1;" parent="1" vertex="1">
          <mxGeometry x="69.23" y="510" width="98.46" height="90" as="geometry" />
        </mxCell>
        <mxCell id="rC6qOEJCelBpkK42YzZv-59" value="Output &quot;username&amp;nbsp;&lt;div&gt;sudah ada&quot;&lt;/div&gt;" style="shape=parallelogram;perimeter=parallelogramPerimeter;whiteSpace=wrap;html=1;fixedSize=1;" parent="1" vertex="1">
          <mxGeometry x="210" y="525" width="140" height="60" as="geometry" />
        </mxCell>
        <mxCell id="rC6qOEJCelBpkK42YzZv-66" value="" style="shape=parallelogram;perimeter=parallelogramPerimeter;whiteSpace=wrap;html=1;fixedSize=1;" parent="1" vertex="1">
          <mxGeometry x="-120" y="525" width="120" height="60" as="geometry" />
        </mxCell>
        <mxCell id="rC6qOEJCelBpkK42YzZv-75" style="edgeStyle=orthogonalEdgeStyle;rounded=0;orthogonalLoop=1;jettySize=auto;html=1;exitX=0;exitY=0.5;exitDx=0;exitDy=0;entryX=0;entryY=0.5;entryDx=0;entryDy=0;" parent="1" source="rC6qOEJCelBpkK42YzZv-69" target="w4usCfikSlc2jYTotSTE-6" edge="1">
          <mxGeometry relative="1" as="geometry">
            <mxPoint x="-430" y="470" as="targetPoint" />
            <Array as="points">
              <mxPoint x="-440" y="555" />
              <mxPoint x="-440" y="470" />
            </Array>
          </mxGeometry>
        </mxCell>
        <mxCell id="rC6qOEJCelBpkK42YzZv-69" value="input &quot;tekan enter untuk kembali.&quot;" style="shape=parallelogram;perimeter=parallelogramPerimeter;whiteSpace=wrap;html=1;fixedSize=1;" parent="1" vertex="1">
          <mxGeometry x="-380" y="525" width="170" height="60" as="geometry" />
        </mxCell>
        <mxCell id="rC6qOEJCelBpkK42YzZv-70" style="edgeStyle=orthogonalEdgeStyle;rounded=0;orthogonalLoop=1;jettySize=auto;html=1;exitX=0;exitY=0.5;exitDx=0;exitDy=0;entryX=1;entryY=0.5;entryDx=0;entryDy=0;" parent="1" source="rC6qOEJCelBpkK42YzZv-55" target="rC6qOEJCelBpkK42YzZv-72" edge="1">
          <mxGeometry relative="1" as="geometry">
            <mxPoint x="117.36000000000013" y="554" as="sourcePoint" />
          </mxGeometry>
        </mxCell>
        <mxCell id="rC6qOEJCelBpkK42YzZv-76" value="false" style="edgeLabel;html=1;align=center;verticalAlign=middle;resizable=0;points=[];" parent="rC6qOEJCelBpkK42YzZv-70" vertex="1" connectable="0">
          <mxGeometry x="-0.0577" y="1" relative="1" as="geometry">
            <mxPoint as="offset" />
          </mxGeometry>
        </mxCell>
        <mxCell id="rC6qOEJCelBpkK42YzZv-71" style="edgeStyle=orthogonalEdgeStyle;rounded=0;orthogonalLoop=1;jettySize=auto;html=1;exitX=0;exitY=0.5;exitDx=0;exitDy=0;entryX=1;entryY=0.5;entryDx=0;entryDy=0;" parent="1" source="rC6qOEJCelBpkK42YzZv-72" target="rC6qOEJCelBpkK42YzZv-69" edge="1">
          <mxGeometry relative="1" as="geometry" />
        </mxCell>
        <mxCell id="rC6qOEJCelBpkK42YzZv-72" value="output &quot;Registrasi berhasil.&quot;" style="shape=parallelogram;perimeter=parallelogramPerimeter;whiteSpace=wrap;html=1;fixedSize=1;" parent="1" vertex="1">
          <mxGeometry x="-119.99999999999989" y="525" width="135" height="60" as="geometry" />
        </mxCell>
        <mxCell id="rC6qOEJCelBpkK42YzZv-73" value="" style="edgeStyle=none;orthogonalLoop=1;jettySize=auto;html=1;rounded=0;" parent="1" edge="1">
          <mxGeometry width="100" relative="1" as="geometry">
            <mxPoint x="-69.99999999999999" y="575" as="sourcePoint" />
            <mxPoint x="30.000000000000014" y="575" as="targetPoint" />
            <Array as="points" />
          </mxGeometry>
        </mxCell>
        <mxCell id="rC6qOEJCelBpkK42YzZv-74" value="" style="edgeStyle=none;orthogonalLoop=1;jettySize=auto;html=1;rounded=0;" parent="1" edge="1">
          <mxGeometry width="100" relative="1" as="geometry">
            <mxPoint x="-400" y="530" as="sourcePoint" />
            <mxPoint x="-300" y="530" as="targetPoint" />
            <Array as="points" />
          </mxGeometry>
        </mxCell>
      </root>
    </mxGraphModel>
  </diagram>
</mxfile>
